<?xml version="1.0" encoding="UTF-8"?>
<svg id="Ebene_1" data-name="Ebene 1" xmlns="http://www.w3.org/2000/svg" version="1.1" viewBox="0 0 566.93 566.93">
  <defs>
    <style>
      .cls-1 {
        fill: #0f283d;
      }

      .cls-1, .cls-2, .cls-3, .cls-4, .cls-5, .cls-6, .cls-7, .cls-8, .cls-9, .cls-10, .cls-11, .cls-12, .cls-13, .cls-14, .cls-15, .cls-16, .cls-17, .cls-18, .cls-19, .cls-20, .cls-21, .cls-22, .cls-23, .cls-24, .cls-25, .cls-26, .cls-27, .cls-28, .cls-29, .cls-30, .cls-31, .cls-32, .cls-33, .cls-34, .cls-35, .cls-36, .cls-37, .cls-38, .cls-39, .cls-40, .cls-41, .cls-42, .cls-43, .cls-44, .cls-45, .cls-46, .cls-47, .cls-48, .cls-49, .cls-50, .cls-51, .cls-52, .cls-53, .cls-54, .cls-55, .cls-56, .cls-57, .cls-58, .cls-59, .cls-60, .cls-61 {
        stroke-width: 0px;
      }

      .cls-2 {
        fill: #c4b9af;
      }

      .cls-3 {
        fill: #2a1614;
      }

      .cls-4 {
        fill: #8d5b14;
      }

      .cls-5 {
        fill: #906a33;
      }

      .cls-6 {
        fill: #d8d6d4;
      }

      .cls-7 {
        fill: #607a64;
      }

      .cls-8 {
        fill: #cfb9a0;
      }

      .cls-9 {
        fill: #5c2d13;
      }

      .cls-10 {
        fill: #d1b46e;
      }

      .cls-11 {
        fill: #b39657;
      }

      .cls-12 {
        fill: #947973;
      }

      .cls-13 {
        fill: #160e1b;
      }

      .cls-14 {
        fill: #e5e0cd;
      }

      .cls-15 {
        fill: #a27d20;
      }

      .cls-16 {
        fill: #e3a258;
      }

      .cls-17 {
        fill: #c9ac88;
      }

      .cls-18 {
        fill: #efeae1;
      }

      .cls-19 {
        fill: #d4b5a0;
      }

      .cls-20 {
        fill: #802528;
      }

      .cls-21 {
        fill: #8c373c;
      }

      .cls-22 {
        fill: #854713;
      }

      .cls-23 {
        fill: #d9dfb3;
      }

      .cls-24 {
        fill: #d091a0;
      }

      .cls-25 {
        fill: #edb;
      }

      .cls-26 {
        fill: #e58e5a;
      }

      .cls-27 {
        fill: #c7c1c5;
      }

      .cls-28 {
        fill: #104e76;
      }

      .cls-29 {
        fill: #302527;
      }

      .cls-30 {
        fill: #3e8372;
      }

      .cls-31 {
        fill: #b3535b;
      }

      .cls-32 {
        fill: #a57d7c;
      }

      .cls-33 {
        fill: #ac7a2c;
      }

      .cls-34 {
        fill: #e7a92a;
      }

      .cls-35 {
        fill: #b68246;
      }

      .cls-36 {
        fill: #222023;
      }

      .cls-37 {
        fill: #5b3d1b;
      }

      .cls-38 {
        fill: #172528;
      }

      .cls-39 {
        fill: #4a172b;
      }

      .cls-40 {
        fill: #e6c99b;
      }

      .cls-41 {
        fill: #ae8a61;
      }

      .cls-42 {
        fill: #c5802b;
      }

      .cls-43 {
        fill: #6a4915;
      }

      .cls-44 {
        fill: #e0b172;
      }

      .cls-45 {
        fill: #6f1711;
      }

      .cls-46 {
        fill: #1f0f19;
      }

      .cls-47 {
        fill: #edd3cc;
      }

      .cls-48 {
        fill: #b96a44;
      }

      .cls-49 {
        fill: #0c3851;
      }

      .cls-50 {
        fill: #8c704f;
      }

      .cls-51 {
        fill: #784d28;
      }

      .cls-52 {
        fill: #ac6b2d;
      }

      .cls-53 {
        fill: #c69964;
      }

      .cls-54 {
        fill: #5c1722;
      }

      .cls-55 {
        fill: #945927;
      }

      .cls-56 {
        fill: #ce8455;
      }

      .cls-57 {
        fill: #411317;
      }

      .cls-58 {
        fill: #a86a54;
      }

      .cls-59 {
        fill: #a46c14;
      }

      .cls-60 {
        fill: #0d2d39;
      }

      .cls-61 {
        fill: #32110d;
      }
    </style>
  </defs>
  <path class="cls-55" d="M408.34,532.35l1.02,1.01c-9.67,4.19-15.07,7.78-15.9,8.09-1.27.47-1.8-1.28-2.57-1.01v-1.01c4.18-1.53,13.84-5.29,17.44-7.07h0Z"/>
  <path class="cls-18" d="M450.4,72.36c-.18-.24-4.83-2.97-5.13-3.03-3.9-.76-7.28-.44-9.23,3.03-10.73-13.3-13.86-6.94-19.49-14.16-1.67-2.14-3.23-7.48-4.1-8.59-11.45-14.58-23.76-4.04-25.14-4.55-.58-.22-.74-3.67-4.62-6.07-8.41-5.2-13.05,5.67-12.82,13.14-.6-2.41-2.13-2.8-3.59-4.05-5.27-4.51-6.75-8.51-15.39-3.03-.17-.16-.03-.34-1.02-1.01-9.48-6.49-15.62-.04-14.37,3.54,12.93,10.1-17.29-12.26-19.49,5.05,5.47,2.07,39.01,20.7,29.76,4.05,9.32-4.47,10.38,4.29,15.9,7.58,23.43,13.96,22.51-10.96,35.9-10.11,2.59,1.24.5,27.98,20.01,17.19.66,23.4,31.59,31.47,22.57,19.21,1.18-3.92,3.44.86,8.72,0,5.03-3.34,4.64-14.07,1.54-18.19,2.45,0,3.58-1.03,6.16,0,.36.14,4.5,3.72,6.67,4.05,5.12.77,8.51-1.04,9.75-1.01,16.37.4,10.53,10.83,13.85,12.14,1.56.61,3.91-1.85,6.16-1.01,2.91,1.09,22.07,21.7,25.14,25.78,17.45,23.25,30.97,60.77,33.35,89.47-9.79-9.8-21.66,9.45-23.08,3.54,2.04-9.22,25.58-6.73,12.82-16.68-10.43-8.13-41.96.58-22.06,7.58,5.23,6.8-18.42,7.13-18.46.51.58-10.14-11.35-3.01-10.26-11.12,1.89-2.15,12.5-10.41,12.32-12.63-.04-.52-6.08-5.81-7.18-7.58,24.54-22.99,1.91-33.94,0-30.84,2.12,15.01,6.6,10.89-2.05,21.74-4.03,5.05-15.37,12.89-21.55,20.22-5.01-13.52-.81-21.6-1.02-22.75-.09-.46-6.13-4.82-6.16-7.07-.06-4.59,17.45-10.98,6.16-16.68-.54-2.78-3.07-5.16-3.07-5.56,0-1.78,17.57-39.08,1.02-19.72-3.38-.02-4.46,4.18-7.18,5.05-7.11,2.3-9.85-10.22-19.49,6.07-9,7.51-20.94-17.8-33.85-13.14-9.56-17.95-21.95,5.46-27.19-20.22-3.37,1.08-15.53,6.97-16.42,7.07-10.56,1.26-49.97-16.07-16.42,3.03,13.96,7.95,35.17,13.65,36.42,15.16-4.76,5.81-9.33,8.23-2.05,14.16,11.32,9.22,30.41,5.89,43.09,7.07l1.02,3.03c-5.13,3.8-6.92,4.88-12.32,8.09-14.61.53-25.67-2.52-37.45-11.12-4.54-3.32-14.44-17.62-10.77-1.51,2.14,9.39,26.09,17.93,34.88,19.72-35.38,6.31-54.84-31.41-75.92-59.65-8-10.72-35.39-46.4-37.96-55.61-.27-.97-1-1.18-1.02-2.02,7.59.49,31.5-8,26.16-16.17-5.14-3.11-12.93-1.18-12.82-5.05,3.51-.99,26.8,4.04,33.35,5.05-8.9,23.23,20.38,18.61,11.28,2.02,41.64,10.94,82.32,25.85,119.01,48.52,5.17,2.89-15.98,4.94-12.82,8.09v-.02h0Z"/>
  <path class="cls-2" d="M33.87,280.61c-4.71,11.81,8.9,8.75,9.75,9.1,12.92,5.22,30.73,22.77,31.29,17.19,7.43,6.06,15.09,12.11,21.55,19.21-8.72-5.83-10.66-9.44-15.39-5.05-4.24-4.05-8.51,6.35-18.98,15.16-10.19,8.59-27.36,17.73-21.03,22.24-.17.04.43,2.15-1.54,3.03-1.24.56-7.07-1.92-11.8,8.59,1.29,15.76,22.08,14.04,30.78,4.05-4.1-14.25-17.64-10.18-16.42-15.67,9.44-1.68,19.27,4.53,27.7,6.07.37.07-1.73,4.42,6.16,0,1.66,2.02,7.34,6.89,8.21,8.09-1.51,3.11-10.8,10.15-11.28,11.63-.46,1.37.3,5.68,0,8.59-.13,1.26,1.61,3.27,1.02,7.58-.2,1.48-5.2,12.66-4.1,24.26,2.35,8.1,6.45-5.42,8.21-7.58,7.32-9.01,16.66-16.9,25.65-24.26.19.37,4.29,6.81,4.62,7.07.18.15,1.83-2.87,4.62.51-9.9,1.97-1.1,11.33,0,21.23-29.09-15.15-.39,11.06-1.02,15.16-.21,1.37-3.97,1.51-7.18,4.55-10.13,9.56-2.29,22.26-1.02,35.38,16.58,11.1,9.05-9.9,11.8-13.14,1.32-1.56,35.63-7.21,40.52-8.09,7.06,1.22,2.21,3.02,10.26,2.02l1.02,1.01c-3.16,2.23-4.84,3.88-5.13,4.05-4.4,2.56-16.83,7.72-23.6,11.12-.4.2-5.15.78-8.21,3.54-.13.61,4.51,3.83,5.13,4.55,2.32,2.7,15.08,14.63,15.39,15.67,1.63,5.54-6.61,28.69,20.01,25.78,3.04-.34,15.6-5.78,17.44-8.09,2.74-3.44.11-7.73,3.59-7.07,5.65,7.04,8.95,9.24,18.46,10.11-.21.53.48,2.13-1.02,4.05-3.01.85-5.89,1.47-5.13,5.05,9.78,10.71,16.21,3.26,25.65,20.72-8.41.67-24.59-2.64-35.4-5.56-37.11-10.05-77.01-32.18-107.21-55.61-.09-.07.32-1.38-2.05-1.01-9.56-12.54-15.04-15.71-29.76-39.93-20.52-33.8-36.41-70.68-40.01-110.2-.85-9.23,2.39-19.9-2.05-21.23l3.07-.51c.74,3.1,6.25,19.1,9.75,18.19,27.71-37.06,4.29-17.84,4.62-50.54.16-.02-.94-.91,3.07-1.01h-.03,0Z"/>
  <path class="cls-6" d="M112.87,75.39c6.8,16.62,4.21,30.31,16.42,20.72-16.2-33.88,4.48-2.72,18.98.51l-1.54-9.6,13.34-14.66c-.43,6.36,1.05,4.05,1.02,5.05-17.29,20.85-8.14,19.35-3.07,12.14,4.7,5.43,4.39,17.37,10.26,22.24-.3,9.24-26.05,17.03-38.47-8.09-19.07,11.05-19.77-2.48-35.4-9.6,7.81,20.21,14.57,18.16,6.16,39.43,20.59,11.72,4.82,14.98,4.1,20.22-.59,4.28,5.66-.03,4.1,27.8-9.02-10.77-6.85-23.73-21.55-18.19-4.77-8.69-14.94-14.71-6.16-25.78-11.04-8.59-20.54,13.94-2.05,28.31.12,5.28-14.18,1.54-5.13,11.63-1.35,3.55-1.61,8.46-1.02,12.14,2.65,16.6,26.46,12.88,7.18,37.4-2.67,3.38-6.14,7.61-8.21,4.55,2.14-8.23,7.2-9.4,6.16-19.21-1.42-13.35-13.11-15.02-23.6-10.11-.48-.84,9.37-12.82,5.13-17.69-.15-4.23-5.69-5.06-9.23-5.05-7.61,0-8.02.6-5.13,5.05.09,5.36-6.25-2.48-8.72-2.02-1.99.37-2.35,3.93-2.57,4.05-1.96,1.1-2.68.79-4.1,2.02-.47.4-8.38,2.13-5.13,9.1-1.16-1.37-2.12-3.7-4.1-4.05,5.34-23.48,28.09-70.54,43.09-89.47,4.87-6.14,31.59-32.44,37.45-32.86.62-.05,9.64,3.28,11.8,4.05h-.02,0Z"/>
  <path class="cls-18" d="M262.65,9.67c-.92,8.26,16.37,19.76,23.6,20.22.02.84.76,1.05,1.02,2.02-11.56,16.32-22.24,33.25-33.85,49.54-5.79,8.11-39.87,54.18-42.58,56.61-9.46,8.53-23.77,15.18-36.42,17.19-17.11,2.71,4.43-5.4,9.23-8.09,5.04-2.82,4.23-1.51,10.26-6.07,13.61-10.27,23.37-28.15,32.83-41.96l-4.1-2.53c4.69-2.96,9.49-2.39,13.34-8.59-14.09,3.44-9.62-2.98-16.93-4.55-19.74-4.25-33.01,10.89-34.88,11.12-1.15.14-9.14-4.2-11.28-4.05-15,1.07-4.52,18.46-4.62,21.23-5.88-4.87-5.56-16.82-10.26-22.24,3.18-4.53,2.95-7.08,3.07-12.14.03-1-1.46,1.3-1.02-5.05.18-2.7-.65-5.14,1.02-5.05,3.11,5.02,4.06,10.11,9.75,14.16,7.64-5.3,1.67-9.53,1.54-10.11,5.38-1.17,2.1-6.11,0-9.6,22.39-.68,20.72,7.92,27.19,10.61,24.1,10.07,17.31-10.71,20.52-14.16,2.56-2.75,15.59-1.82,19.49-6.07,5.38,5.91.18,19.36,4.1,19.21,7.8-9.9,17.74-30.28-2.57-32.35l-2.05-15.16c7.55,2.14,4.63-5.75,4.1-11.12,4.31-1,15.09-2.69,19.49-3.03h0Z"/>
  <path class="cls-18" d="M239.05,38.99c-1.23.05-20.81,4.45-22.06,5.05-11.1,5.39-4.57,16.19-11.8,8.09-16.79-18.84-26.57-5.18-28.21-5.05-1.18.09-18.16-12.17-18.98-3.03-4.03,5.99,5.54,12.03,5.13,12.63-.64.93-6.4-1.69-18.46,12.14-1.45,1.67-4.42,9.41-5.64,9.6-1.66.26-15.82-13.36-31.29-10.11l-1.54-2.02c18.39-15.57,105.41-54.98,124.14-48.52,2.25.78,10.15,16.84,8.72,21.23h0Z"/>
  <path class="cls-8" d="M83.11,235.12c1.32,4.95,4.49,2.09,6.16,3.54,1.03.9-.74,10.29,8.72.51l.52,2.02c-17.64,14.84-34.93,31.02-56.43,40.44-.15-.07-1.81-1.86-2.57-2.02-.32-.07-1.82.91-5.64,1.01-4.03.11-2.92.99-3.07,1.01-4.02.59-5.61.59-9.75,0,2.33,12.23-4.24,13.37-4.62,14.16-7.14-1.6-2.96-8.66-3.07-13.14l9.23-5.56-7.18-9.6c.63-1.56-1.13-5.78,1.02-6.07,12.3,19.28,42.47-10.37,27.7-24.26-1.28-1.21-2.06-2.66-4.1-3.03,11.24-7.54,20.75-23.49,27.7-16.68,9.06,25.62-13.13,32.89,15.39,17.69h0Z"/>
  <path class="cls-53" d="M268.81,524.26c-14.17-3.92,9.71,5.3,13.34,24.26.59,3.12,4.61,7.17-2.05,8.09.11-1.24-.89-.92-1.02-1.01,2.68-3.35-14.77-9.61-21.55-17.7-3.62-4.32-4.95-9.23-5.64-14.66-7.36,7.89-15.99,15.19-20.52,22.24-13.47-13.2-3.92-18.91-27.19-18.19-.77-3.59,2.13-4.21,5.13-5.05.59-.16,10.53-.11,12.31,0,1.28,2.63,10.04,9.14,12.82,13.14,4.75-4.88,12.46-14.7,12.82-21.23,11.66-6.92,19.36-1.04,21.55,10.11h0Z"/>
  <path class="cls-44" d="M299.59,8.66c-.11,3.87,7.69,1.95,12.82,5.05,5.33,8.17-18.58,16.66-26.16,16.17-7.23-.46-24.51-11.95-23.6-20.22,8.33-.65,16.49-2.24,24.62.51-10.29.43,4.75,3.67,8.72,2.53,1.47-.42,2.43-3.72,3.59-4.05h0Z"/>
  <path class="cls-44" d="M324.21,521.23c2.28,1.16,8.56-1.36,3.07,12.14-5.08.72-9.11,12.64-32.31,18.19-.72.17-8.33,6.35-10.77-3.03-4.21-16.14,14.24-8.94,17.96-10.11,1.4-.44,17.57-10.69,18.98-20.22,1.91.28,1.61,2.28,3.07,3.03h0Z"/>
  <path class="cls-6" d="M24.63,197.72c.05.06.39.31,1.02,1.01,2.71,3.02,5.41,6.16,8.21,9.1-.38,12.24-11.84,27.42-4.1,29.32-2.53,1.57-4.43,2.48-6.16,5.05-1.45-.28-6.97,4.67-7.18,5.05l-2.05-4.55c3.13-16.28,2.46-32.78,6.16-49.03,1.98.35,2.95,2.67,4.1,4.05h0Z"/>
  <path class="cls-6" d="M331.4,542.45c1.9.55,5.34,1,7.18,1.01l2.05,4.05c-10.76,8.44-15.04.61-16.93,1.01-1.96.41,1.74,8.44-22.57,6.07l-1.02-2.02c6.33-.91,22.08-10.84,25.14-15.16,1.3,3.83,2.62,4.04,6.16,5.05h0Z"/>
  <path class="cls-18" d="M498.62,202.77c.07,1.57,2.01.71,2.05,1.51.03.68-3.78,4.62,2.05,12.63l-5.13,2.02c-1.45-1.46-1.93-.92-2.05-1.01-5.33-3.82-5.47-.52-6.16-1.51-1.27-1.86,3.84-6.1-1.02-11.63l10.26-2.02h0Z"/>
  <path class="cls-41" d="M15.4,267.47l7.18,9.6-9.23,5.56c-.02-.68-2.15-7.68-1.02-13.65.3-1.59,3.02-1.36,3.07-1.51Z"/>
  <g>
    <path class="cls-53" d="M555.05,286.68c-3.64,2.24-3.7-3.03-4.1-6.07-.73-5.5.29-10.77,1.02-16.18.4-2.92,4.55.05,3.07-28.31-.73-14.1,2.56-31.38-18.46-22.75,5.76,13.4,6.69,15.17-5.13,8.59l7.18,1.51c-5.21-17.41-7.43-10.2-8.72-10.61-4.96-1.59-17.67-10.17-18.46-2.02,5.62-1.45,7.8,2.27,11.8,5.05-5.62-2.21-7.39,7.14-20.52,1.01-5.84-8.02-2.02-11.95-2.05-12.63-.04-.81-1.98.06-2.05-1.51,0-.32,2.03-5.75,2.05-6.07.04,6.62,23.7,6.29,18.46-.51-19.91-7.01,11.63-15.71,22.06-7.58,12.76,9.95-10.78,7.46-12.82,16.68,1.42,5.91,13.3-13.33,23.08-3.54-2.37-28.7-15.88-66.23-33.35-89.47-3.06-4.08-22.23-24.69-25.14-25.78-2.25-.84-4.6,1.62-6.16,1.01-3.33-1.3,2.52-11.73-13.85-12.14,4.18-3.69-11.07-11.69-16.42-3.03-2.58-1.03-3.71,0-6.16,0-3.15-3.15,17.99-5.2,12.82-8.09-36.69-22.68-77.36-37.59-119.01-48.52,9.09,16.58-20.18,21.2-11.28-2.02-6.55-1.02-29.82-6.05-33.35-5.05-1.16.33-2.12,3.62-3.59,4.05-3.97,1.15-19.01-2.09-8.72-2.53-8.14-2.74-16.29-1.16-24.62-.51-4.41.35-15.18,2.04-19.49,3.03-9.87,2.27-15.97,3.06-4.1,11.12l2.05,15.16c-.66-.07-1.38-.03-2.05,0,1.42-4.39-6.48-20.46-8.72-21.23-18.74-6.45-105.75,32.96-124.14,48.52l1.54,2.02c-11.59,2.43,4.94,3.27,6.16,5.56.73,1.37-1.06,1.43-1.02,1.51-2.16-.77-11.18-4.09-11.8-4.05-5.86.42-32.58,26.72-37.45,32.86-15,18.93-37.74,66-43.09,89.47-3.7,16.25-3.03,32.75-6.16,49.03l2.05,4.55c-1.28,2.34-2.38,7.48-2.05,10.11.07.58,1.51,3.18,2.05,4.05-2.16.28-.39,4.51-1.02,6.07-.07.15-2.78-.08-3.07,1.51-1.12,5.97,1.01,12.96,1.02,13.65.13,4.49-4.07,11.54,3.07,13.14-3.53,7.3-1.89,10.34,0,18.19l-3.07.51c4.45,1.33,1.21,12,2.05,21.23,3.61,39.52,19.48,76.41,40.01,110.2,14.72,24.22,20.19,27.4,29.76,39.93.79,1.04,1.57,3.15,2.05,1.01,30.2,23.43,70.1,45.56,107.21,55.61,10.81,2.92,26.98,6.23,35.4,5.56-9.45-17.46-15.88-10.02-25.65-20.72,23.27-.72,13.71,4.99,27.19,18.19,4.52-7.05,13.15-14.35,20.52-22.24.69,5.44,2.02,10.34,5.64,14.66,6.78,8.08,24.22,14.34,21.55,17.7-33.2-21.79-28.27-25.09-30.26-25.28-1.26-.12-14.68,16.41-16.93,18.7,12.92,4.41,26.04,5.67,39.5,6.58.51.04.34,4.3,8.72,1.01,6.66-.91,2.65-4.97,2.05-8.09h2.05c2.45,9.37,10.06,3.2,10.77,3.03,23.2-5.55,27.24-17.47,32.31-18.19-.2.5-1.92,3.86-2.05,4.05-3.05,4.32-18.8,14.25-25.14,15.16l1.02,2.02c24.31,2.37,20.61-5.66,22.57-6.07,1.89-.4,6.17,7.42,16.93-1.01.97-.76,4.12-3.82,4.1-5.05,1.39-.06,2.9.02,3.07,0l1.02,6.58c2.35,3.07,36.41-7.52,42.06-9.6v1.01c-.12.04.4,1.71-.52,2.02-.93.33-8.8.06-9.23,3.03-12.12,1.2-23.42,6.01-35.4,8.09-.89-2.8-2.15-.28-3.07,0-.11.03.68.89-2.05,1.01-1.24-2.65-2.84-.35-4.1,0-.11.03.68.89-2.05,1.01-2.12-2.79-3.91-.06-4.1,0-.16.05.98.76-3.07,1.01-2.12-2.79-3.91-.06-4.1,0-.2.07,1.09.9-4.1,1.01-2.12-2.79-3.91-.06-4.1,0-.16.05,1.01.43-3.07,1.01.13-1.58-4.36-1-9.23-1.01-2.92-3.19-8.52-.79-12.31,0-1.39.29-4.46.73-5.13,2.02-69.97.06-167.56-28.53-213.39-83.4-18.32-21.93-44.89-70.87-52.32-98.06-12.37-45.3-10.84-150.21,2.05-195.11,4.65-16.21,22.39-53.34,31.81-67.73C102.25,40.49,232.41-2.06,318.57,8.63c50.31,6.24,126.14,36.54,166.2,67.73,45.07,35.09,65.73,80.42,72.33,135.98,4.82,40.46-2.94,54.59-2.05,74.31v.03h0Z"/>
    <g>
      <path class="cls-51" d="M290.36,557.62c4.1,0,8.21,0,12.31,0,4.87,0,9.36-.57,9.23,1.01-7.56,1.07-18.77,1.01-26.67,1.01.67-1.29,3.75-1.73,5.13-2.02h0Z"/>
      <g>
        <path class="cls-51" d="M340.63,554.59c-1.36.06-2.74-.04-4.1,0,1.26-.35,2.87-2.65,4.1,0Z"/>
        <path class="cls-51" d="M345.75,553.58c-.97.17-2.07-.1-3.07,0,.93-.28,2.2-2.8,3.07,0Z"/>
        <path class="cls-51" d="M334.47,555.6c-1.36.06-2.74-.04-4.1,0,.19-.06,1.98-2.79,4.1,0Z"/>
        <path class="cls-51" d="M327.29,556.61c-1.36.09-2.74-.06-4.1,0,.19-.06,1.98-2.79,4.1,0Z"/>
        <path class="cls-51" d="M319.08,557.62c-1.37.03-2.73-.02-4.1,0,.19-.06,1.98-2.79,4.1,0Z"/>
        <path class="cls-6" d="M279.07,555.6c.14.09,1.14-.22,1.02,1.01-8.39,3.3-8.22-.98-8.72-1.01-13.46-.9-26.58-2.17-39.5-6.58,2.25-2.3,15.66-18.83,16.93-18.7,1.99.19-2.94,3.49,30.26,25.28h0Z"/>
        <path class="cls-44" d="M243.16,12.71c.53,5.38,3.44,13.26-4.1,11.12-11.88-8.07-5.77-8.85,4.1-11.12Z"/>
        <g>
          <path class="cls-44" d="M531.45,221.98c-4.27-2.38-5.34-4.07-8.21-6.07-4-2.79-6.17-6.51-11.8-5.05.79-8.16,13.5.43,18.46,2.02,1.28.41,3.5-6.79,8.72,10.61l-7.18-1.51h0Z"/>
          <path class="cls-25" d="M528.88,186.59c14.22-.12,3.34,6.09-3.07,8.09-6.99-5.38-5.54-8.01,3.07-8.09Z"/>
        </g>
        <path class="cls-8" d="M302.66,557.62c-4.1,0-8.21,0-12.31,0,3.79-.79,9.4-3.19,12.31,0Z"/>
        <path class="cls-8" d="M236.49,551.56c.14-.06,2.57,1.37,2.57,1.51,0,2.52-6.02.02-2.57-1.51Z"/>
        <path class="cls-51" d="M87.22,486.86c-.49,2.15-1.26.03-2.05-1.01,2.37-.37,1.96.94,2.05,1.01Z"/>
      </g>
    </g>
  </g>
  <path class="cls-6" d="M339.6,488.88c10.08.26,21.77-2.38,31.81-4.05.94,1.06.74,2.33,1.02,3.03-2.23,11.48-12.56-3.12-14.37,1.51l-5.13,30.84c-9.94-10.78-4.28.12-14.37-3.54,14.24-20.99,10.21-19.83-7.69-5.56v-10.11l-10.77,6.07c-.11-.31-3.4-4.28-4.1-5.05,6.93-7.62,13.54-15.87,19.49-24.26,7.54.99-1.15,17.2,4.1,11.12Z"/>
  <path class="cls-57" d="M392.95,481.8c-3.78.96-11.96,2.28-16.42,3.03-1.59.27-3.54-.27-5.13,0-10.04,1.66-21.73,4.3-31.81,4.05,10.32-10.82,23.39-17.89,34.88-27.3,19.79-1.27,10.35,7.33,18.46,20.22h0Z"/>
  <g>
    <path class="cls-58" d="M555.05,286.68c.22,5.01,3.01,9.56,3.07,11.12-8.97-15.83-3.66-2.47-13.34-5.05-.51-6.38.85-8.52,6.16-12.14.4,3.04.47,8.31,4.1,6.07Z"/>
    <path class="cls-20" d="M551.97,331.16c-.54.92-.71,5.69-3.07,3.54-12.79-26.6-3.1-24.49-2.05-28.31,1.03-3.75-.87-9.29-1.02-11.63,15.86,4.63,4.85,19.55,4.1,29.82-.06.74,2.04.26,2.05,1.01,0,.76-4.15,1.36,0,5.56h0Z"/>
  </g>
  <g>
    <path class="cls-53" d="M558.12,297.8c2.2,50.16-9.96,93.93-35.9,136.99-31.53,52.33-56.52,74.17-112.86,98.57l-1.02-1.01c12.86-6.39,9.17-9.52-9.75-16.18-5.43,12.42-2.35-.93-2.57-1.51-.36-1.04-15.8-11.04-8.21,8.09-4.75,1.72-2.2-4.74-6.67,1.51-5.21-8.64,1.55-21.09-11.8-9.1.14-.61-1.96-6.2,0-12.63,1.86-6.08,7.32-9.36,7.18-10.11-.1-.59-2.74-1.27-4.1-4.55-.29-.7-.09-1.97-1.02-3.03,1.6-.27,3.54.27,5.13,0,7.01,6.13,2.98,10.76,5.64,13.14,1.05.94,22.19,8.87,25.65,12.14,9.58-18.54,17.14-23.17,14.87-44.99,16.2-4.47,6.47,7.34,9.23,28.31-1.77,1.9-1.43,12.1-2.05,13.14-3.32,5.55-9.1-1.93-11.28,20.22,52.21-14.4,104.81-85.21,119.01-132.94,3.72-4.35,22.8-73.13,18.98-73.8-1.2,3.88-2.53,7.58-4.62,11.12-4.15-4.2,0-4.8,0-5.56s-2.1-.28-2.05-1.01c.75-10.28,11.75-25.19-4.1-29.82,0-.12-.81.73-1.02-2.02,9.68,2.58,4.37-10.77,13.34,5.05h.02Z"/>
    <path class="cls-6" d="M374.99,496.96l3.59.51c5.45,7.9-17.84,20.22-3.59-.51Z"/>
  </g>
  <path class="cls-20" d="M408.34,102.69c3.16,5.92,2.22,13.86,5.64,15.16,1.42.55,29.79,4.06,28.21-2.02,9.64-16.28,12.38-3.77,19.49-6.07,2.2,1.32-15.23,24.26-16.42,25.28-.19.16-.8-.16-1.02,0-9.19,6.5-7.44-3.04-14.37-5.05-.2-.06,1.16-.52-4.1-1.01-12.68-1.2-31.76,2.15-43.09-7.07,1.83-3.44,4.77-10.86,2.05-14.16-1.25-1.51-22.46-7.22-36.42-15.16-33.56-19.1,5.85-1.78,16.42-3.03.89-.11,13.04-6,16.42-7.07,5.23,25.68,17.63,2.26,27.19,20.22h0Z"/>
  <path class="cls-54" d="M444.24,135.04c-2.07,3.01-2.49,6.96-4.1,10.11-1.14,2.2-5.89,7.72-6.16,9.6-.06.41,4.23,1.86,2.05,7.07-.46,1.09-4.87-.62-5.13-.51-3.45,1.55-2.71,5.36-3.07,6.07-1.01,1.95-3.68,6.18-4.1,8.09l-14.37-6.07c-4.93-8.05-6.53.39-11.28-2.02,3.32-6.25,6.99-14.49,9.23-21.23,1.44-.54,5.85-5.27,7.18-6.07,5.4-3.21,7.18-4.29,12.32-8.09.94-.7,2-1.52,3.07-2.02,6.92,2.02,5.17,11.55,14.37,5.05h0Z"/>
  <path class="cls-20" d="M468.86,104.71c3.1,14.33-14.7,8.24-2.57,35.38,9.68-4.63,5.66-4.64,4.62-10.11,11.29,5.7-6.22,12.09-6.16,16.68.03,2.26,6.07,6.62,6.16,7.07.22,1.15-3.99,9.23,1.02,22.75-2.97,3.52-3.76,8.06-7.18,7.07-2.13-13.35,1.06-20.54-7.18-32.35l5.13-5.56c-7.53-5.37-6.21-14.54-15.39-6.58-.78-1.28-1.33-2.72-2.05-4.05,1.18-1.02,18.62-23.95,16.42-25.28,2.72-.88,3.81-5.08,7.18-5.05v.02h0Z"/>
  <path class="cls-25" d="M442.19,115.83c1.58,6.09-26.79,2.57-28.21,2.02-3.42-1.3-2.48-9.24-5.64-15.16,12.91-4.66,24.85,20.65,33.85,13.14h0Z"/>
  <path class="cls-20" d="M470.92,129.98c1.04,5.47,5.06,5.47-4.62,10.11-12.14-27.15,5.67-21.06,2.57-35.38,16.54-19.37-1.03,17.93-1.02,19.72,0,.4,2.55,2.78,3.07,5.56h0Z"/>
  <g>
    <path class="cls-20" d="M490.41,185.58c-1.1,8.12,10.84.99,10.26,11.12-.02.32-2.06,5.74-2.05,6.07l-10.26,2.02c-.65-.74-.98-.96-1.02-1.01-.43-.53-6.25,2.55-3.07-10.61.69-2.89,4.32-5.49,6.16-7.58h0Z"/>
    <path class="cls-20" d="M495.55,165.37c1.1,1.77,7.14,7.06,7.18,7.58.18,2.22-10.43,10.49-12.32,12.63-1.84,2.09-5.46,4.7-6.16,7.58-3.17,13.16,2.65,10.09,3.07,10.61-9.35,7.94,2.57,17.5-15.9,18.19-3.11-12.64-4.62-25.59-6.67-38.42,3.42.99,4.21-3.56,7.18-7.07,6.18-7.32,17.52-15.17,21.55-20.22-.83,3.53-.05,5.73,2.05,9.1h.02,0Z"/>
    <path class="cls-20" d="M495.55,165.37c-2.1-3.36-2.88-5.57-2.05-9.1,8.66-10.85,4.17-6.72,2.05-21.74,1.91-3.12,24.54,7.84,0,30.84h0Z"/>
  </g>
  <path class="cls-26" d="M382.69,121.89c-7.28-5.92-2.7-8.34,2.05-14.16,2.71,3.3-.22,10.72-2.05,14.16Z"/>
  <path class="cls-47" d="M429.89,129.98c-1.08.5-2.13,1.32-3.07,2.02l-1.02-3.03c5.26.5,3.9.95,4.1,1.01h0Z"/>
  <path class="cls-8" d="M96.45,326.11c21.9,14.66,44.42,35.05,54.38,59.65-.18.52.18,1.5,0,2.02l-3.59,5.05c-4.65-13.93-9-22.78-20.52-32.35l-3.59.51c-2.62,32.01,15.71,61.45,8.21,72.28-22.45-43.28-12.44-57.39-45.15-99.08-.2-.26.43-2.56-4.1-5.05,2.81-4.88,1.58-2.83-1.02-8.09,4.73-4.39,6.67-.78,15.39,5.05h0Z"/>
  <path class="cls-41" d="M163.14,503.03c1.23,2.48,4.02,11.26,4.62,11.12,1.41-10.78,8.82-14.02,16.93-19.21,2.99,3.95,4.39,9.66,7.18,13.14-3.48-.64-.86,3.63-3.59,7.07-1.83,2.31-14.4,7.75-17.44,8.09-26.61,2.91-18.38-20.24-20.01-25.78-.31-1.04-13.06-12.97-15.39-15.67l.52-2.02c20.49,13.58,20.53,28.87,27.19,23.25h0Z"/>
  <path class="cls-41" d="M162.11,462.59l10.26,12.14c-5.24-.11-21.99,3.5-27.7,6.07-2.03-1.84-6.09-4.05-6.16-7.07,6.77-3.41,19.19-8.56,23.6-11.12h0Z"/>
  <path class="cls-17" d="M42.07,281.63c2.67,1.25,27.63,21.03,32.83,25.28-.56,5.58-18.37-11.96-31.29-17.19-.85-.35-14.46,2.71-9.75-9.1,3.82-.1,5.32-1.08,5.64-1.01.76.16,2.41,1.96,2.57,2.02h0Z"/>
  <path class="cls-53" d="M138.51,473.71c.06,3.02,4.11,5.24,6.16,7.07,9.3,8.4,12.76,10.7,18.46,22.24-6.64,5.62-6.7-9.67-27.19-23.25l-.52,2.02c-.61-.72-5.26-3.94-5.13-4.55,3.06-2.76,7.81-3.34,8.21-3.54h0Z"/>
  <path class="cls-20" d="M480.15,317.01c-2.09.55-11.89-6.52-12.32-7.07-1.89-2.49-2.33-5.08-2.05-8.09,6.58-7.56-.1-11.35,0-12.63.15-1.96,4.12-11.68,4.1-14.16-.1-10.55-12.67-13.34,5.13-31.84,17.2,14.59,34.95,28.95,55.4,38.93-16.82,11.57-34.44,21.91-50.27,34.88h0Z"/>
  <path class="cls-25" d="M485.28,336.22c-6.06,5.79-16.44,28.49-19.49,37.4-4.52,13.21-10.15,36.42-14.37,51.56-9.61-5.22,4.9-29.91,8.21-47.01-4.96,1.99-11.92,11.08-15.39,15.67h-2.05c.15-.3-.18-3.66,1.02-6.07,11.79-20.96,34.85-44.36-1.54-15.16-6.43,5.16-11.76,13.18-18.98,17.19,3.56-23.69,29.47-47.83,47.2-63.7,1.95-1.73,4.16-3.36,6.16-5.05l9.23,15.16h0Z"/>
  <path class="cls-49" d="M419.62,190.63c-2.24,2.79,1.44,2.62,4.1,5.05,13.71,12.52,38.08,36.69,47.2,44.49-14.32,17.54-11.33,1.02-15.9,1.01-5.52,0,3.5,14.69-20.52-3.03,6.23,35.34-3.88,14.66-13.85,15.16.29-8.75-6.9-59.24-5.13-62.17.66-1.1,3.04-.17,4.1-.51h0Z"/>
  <path class="cls-54" d="M490.41,333.18c2.01,9.94-12.76,15.28-4.1,25.28,5.02,5.79,7.27,3.12,10.26,13.14.16.51.14,8.32,1.02,10.61.96,2.49,2.85.3,3.07.51-4.68,12.22-1.54,11.63-1.02,14.16.28,1.38.66,2.69,1.02,4.05l-2.57,3.03c-1.16-3.39-15.52-11.27-19.49-13.14-7.82-3.68-12.5,5.65-12.82-17.19,3.05-8.92,13.43-31.62,19.49-37.4,1.68-1.6,3.02-2.18,5.13-3.03h0Z"/>
  <path class="cls-53" d="M536.58,378.68c-3.31,1.11-4.39,7.9-12.82,4.05-11.86-9.79-.76-19.86-1.54-20.72-1.36-1.51-8.95,2.35-17.44-6.58-2.9-3.05-3.15-8.13-6.16-8.09,2.49-3.21,1.9-3.87,2.05-4.05.31-.35,2.08.15,7.18-6.07,2.43,1.88,1.78,4.4,2.57,5.05.54.45,6.25.68,11.8,7.58,3.42,4.26,2.76,8.73,3.07,9.1.84.96,11.22-1.97,11.28,19.72h0Z"/>
  <g>
    <path class="cls-53" d="M495.55,217.93c.13.09.6-.45,2.05,1.01.43.43-1.08,1.44-1.02,1.51.49.66,7.31.58,4.1,13.65-6.9-5.53-7.01-12.81-7.69-6.07-5.89-2.01-6.1-1.88-4.62,3.54,2.29,8.36,14.97,12.32,19.49,16.68-12.65-1.59-27.34-13.68-35.9-22.75,9.04-2.19,16.35-6.06,23.6-7.58h0Z"/>
    <path class="cls-44" d="M500.67,234.11c3.64,2.91,29.31,16.94,7.18,14.16-4.51-4.36-17.21-8.33-19.49-16.68-1.48-5.43-1.28-5.55,4.62-3.54.68-6.74.8.54,7.69,6.07h0Z"/>
  </g>
  <path class="cls-20" d="M507.85,337.23c-5.1,6.22-6.87,5.71-7.18,6.07-11.17-6.44-12.19,3.9-13.34,12.14-.16,1.09-1.53,1.5-1.02,3.03-8.66-10,6.12-15.34,4.1-25.28,10.62-4.33,11.86-.28,17.44,4.05h0Z"/>
  <path class="cls-20" d="M457.58,151.21c-.46-.65-2.78.26-10.26-12.14,9.18-7.97,7.86,1.21,15.39,6.58l-5.13,5.56h0Z"/>
  <path class="cls-30" d="M480.15,317.01c-.81.66-2.32,2.52-4.1,4.05-1.98,1.7-4.21,3.32-6.16,5.05l-2.05-16.18c.43.57,10.21,7.63,12.32,7.07h0Z"/>
  <g>
    <path class="cls-57" d="M87.22,163.34c5.19,9.45,19.63,39.56,22.57,30.33-7.15,27.14-5.12,27.65-19.49,37.4l-10.26-4.05c19.28-24.52-4.53-20.81-7.18-37.4,27.24,4.07,9.9-2.24,1.02-12.14-9.06-10.08,5.24-6.34,5.13-11.63-18.49-14.37-9-36.89,2.05-28.31-8.78,11.06,1.38,17.09,6.16,25.78h0Z"/>
    <path class="cls-54" d="M108.76,181.54c-.17,3.01-1.49,8.04,1.02,11.12-.08.32.09.7,0,1.01-2.94,9.23-17.38-20.88-22.57-30.33,14.69-5.54,12.53,7.42,21.55,18.19h0Z"/>
    <path class="cls-19" d="M72.85,189.63c-.58-3.66-.32-8.59,1.02-12.14,8.88,9.89,26.21,16.21-1.02,12.14Z"/>
  </g>
  <path class="cls-40" d="M155.95,182.55c1.02,3.89.41,4.44-2.05,8.09-.04.06-.26,0-1.02,1.01-3.06,4.04-34.15,31.38-42.06,38.42-4.14,3.69-8.06,7.54-12.31,11.12l-.52-2.02c-9.46,9.78-7.69.39-8.72-.51-1.66-1.45-4.83,1.41-6.16-3.54,2.53-1.35,4.78-2.42,7.18-4.05,14.38-9.75,12.34-10.27,19.49-37.4.09-.32-.08-.7,0-1.01,2.45-9.4,8.03-40.31,9.23-42.96.66-1.45,4.1-4.12,5.13-5.56,1.61.98,2.11,2.84,2.05,4.55-.25,7.26-7.33,51.15-6.16,53.58,4.81,9.96,29.47-22.87,35.9-19.72h0Z"/>
  <g>
    <path class="cls-57" d="M30.79,281.63c-.33,32.71,23.09,13.49-4.62,50.54-3.49.91-9.01-15.11-9.75-18.19-1.89-7.86-3.53-10.9,0-18.19.38-.79,6.95-1.92,4.62-14.16,4.13.59,5.73.59,9.75,0Z"/>
    <g>
      <path class="cls-1" d="M16.43,261.4c-.54-.86-1.97-3.47-2.05-4.05,7.19,5.06,10.65,11.56,20.52,6.58-1.85-15.28-6.59-6.39-9.23-11.63,4.39-2.87,13.7-11.35,18.46-15.16,14.78,13.89-15.4,43.54-27.7,24.26h0Z"/>
      <path class="cls-1" d="M23.61,242.19c-3.55,5.28-7.22,16.18,2.05,10.11,2.65,5.23,7.38-3.65,9.23,11.63-9.87,4.98-13.33-1.5-20.52-6.58-.33-2.63.77-7.77,2.05-10.11.21-.38,5.73-5.33,7.18-5.05h0Z"/>
      <path class="cls-49" d="M40.02,234.11c2.04.37,2.82,1.83,4.1,3.03-4.77,3.82-14.08,12.3-18.46,15.16-9.27,6.07-5.6-4.83-2.05-10.11,1.73-2.57,3.63-3.48,6.16-5.05,3.23-2,3.91-1.9,4.1-2.02,2.91-1.8,5.67-.69,6.16-1.01h0Z"/>
    </g>
  </g>
  <g>
    <path class="cls-44" d="M161.09,67.3c-1.68-.09-.85,2.35-1.02,5.05l-13.34,14.66,1.54,9.6c-14.49-3.23-35.17-34.38-18.98-.51-12.2,9.59-9.61-4.1-16.42-20.72-.04-.09,1.75-.14,1.02-1.51-1.22-2.29-17.73-3.13-6.16-5.56,15.48-3.25,29.63,10.36,31.29,10.11,1.23-.19,4.19-7.94,5.64-9.6,12.06-13.82,17.83-11.2,18.46-12.14.42-.61-9.15-6.65-5.13-12.63,2.58,9.51,11.39,12.75,11.28,13.65-15.31,1.69-23.31,15.25-13.85,10.61,4.69-2.3,2.08-6.77,5.64-1.01h0Z"/>
    <path class="cls-44" d="M158,89.53c-5.07,7.22-14.21,8.72,3.07-12.14-.13,5.05.1,7.6-3.07,12.14Z"/>
    <path class="cls-44" d="M205.2,52.13c-4.96.52-3.27-1.45-11.28-4.05-24.21-7.84-3.62,1.97-1.02,4.05,8.21,6.58-4.32-.6-3.59,9.1-1.01-1.71-16.39-2.87-17.44-2.02-3.08,4.71-.68,6.99.52,12.14.14.58,6.1,4.81-1.54,10.11-5.69-4.05-6.63-9.14-9.75-14.16-3.57-5.76-.95-1.28-5.64,1.01-9.46,4.63-1.47-8.92,13.85-10.61.11-.9-8.72-4.13-11.28-13.65.82-9.14,17.8,3.12,18.98,3.03,1.65-.12,11.42-13.77,28.21,5.05h0Z"/>
    <g>
      <path class="cls-44" d="M239.05,38.99c.67-.03,1.38-.07,2.05,0,20.31,2.07,10.37,22.45,2.57,32.35-3.91.15,1.27-13.3-4.1-19.21-3.9,4.25-16.94,3.32-19.49,6.07-3.21,3.44,3.59,24.22-20.52,14.16-6.46-2.7-4.8-11.29-27.19-10.61,2.1,3.5,5.38,8.44,0,9.6-1.2-5.15-3.59-7.43-.52-12.14,1.05-.84,16.43.32,17.44,2.02-.73-9.71,11.8-2.52,3.59-9.1,3.08.35,2.34-1.98,1.02-4.05,8.02,2.6,6.32,4.55,11.28,4.05,7.23,8.11.7-2.7,11.8-8.09,1.25-.6,20.83-5.01,22.06-5.05h0Z"/>
      <path class="cls-40" d="M222.13,44.04c13.55-2.01-4.11,5.6-7.18,9.1l-.52-3.54c.87-.68,7.23-5.49,7.69-5.56h0Z"/>
    </g>
    <path class="cls-40" d="M193.92,48.09c1.31,2.06,2.06,4.4-1.02,4.05-2.6-2.08-23.18-11.88,1.02-4.05Z"/>
  </g>
  <path class="cls-2" d="M281.12,523.25c5.01,9.08-8.27,2.13-12.31,1.01-2.18-11.15-9.88-17.03-21.55-10.11.04-.67-2.6-4.2-3.07-13.14-1.56-.56-17.26,20.73-22.57,20.22-3.49-10.87,1.44-5.16,4.1-15.16,3.57-13.44-.84-13.29-12.31-10.11,8.01-11.73.68-3.18-5.13-7.07-.12-.64.05-1.36,0-2.02,8.21-.83,26.62-.15,31.81-2.02,3.61-1.3.97-2.84,4.1-4.05,11.11,15.09,22.6,30.06,36.94,42.46h0Z"/>
  <path class="cls-49" d="M269.83,414.06c.2,1.62,1.98,1.9,2.05,2.02,2.3,4.61.96,13.64,0,18.7-32.95-4.62-7.57,7.49-7.18,10.11.66,4.5-27.37,9.79,6.16,13.14-28.79,35.9.52,14.87,6.67,16.68,4.04,1.19,2.84,19.12,12.31,16.17,9.6-37.82,13.48-3,29.24-18.7-23.9-22.47,2.36-12.06,6.16-17.19-13.4-9.36-6.28-5.96,0-23.25l-20.01,4.55-2.57-24.26c23.15-1.48,45.8,1.95,68.73,4.05l6.16,4.05c-8,2.91-23.48,27.77-28.73,35.38-4.83,7.03-8.37,15.23-13.34,22.24-5.95,8.4-12.56,16.65-19.49,24.26-8.56,9.4-19.61,16.88-27.19,27.3-1.16.16-6.33-4.89-7.69-6.07-14.34-12.4-25.83-27.37-36.94-42.46-13.72-18.62-22.49-41.91-44.11-53.58-13.18-9.87,9.09-3.7,27.19-12.14,3.5,1.31,9.26-2.48,13.34-3.03,10.87-1.48,18.96-.87,29.24,2.02h0Z"/>
  <g>
    <path class="cls-53" d="M352.93,520.21c8.04,8.72,4.71,12.76,13.34,6.07-1.89,6-8,4.12,1.02,11.63,1.76,2.7-10.4,3.61-19.49,4.55-.18.02-1.69-.06-3.07,0-9.63.4-5.76,1.02-6.16,1.01-1.85-.02-5.28-.46-7.18-1.01.99-3.38,9.91-1.04,12.82-2.02.64-.22,1.37-3.76,2.05-4.05.47-.19,8.62.41,8.72-3.54-4.39-2.89-10.86,2.46-11.8,2.53-6.43.46-13.61-2.35-15.9-2.02,5.48-13.49-.81-10.97-3.07-12.14,1.05-2.78,1.48-6.6-3.07-6.07-.03-1.61-.7-7.13-1.02-8.09l10.77-6.07v10.11c17.91-14.27,21.94-15.43,7.69,5.56,10.09,3.66,4.43-7.25,14.37,3.54h0Z"/>
    <path class="cls-44" d="M331.4,542.45c-3.54-1.03-4.85-1.22-6.16-5.05.13-.18,1.85-3.55,2.05-4.05,2.3-.33,9.47,2.48,15.9,2.02.94-.07,7.41-5.43,11.8-2.53-.1,3.95-8.25,3.35-8.72,3.54-.67.28-1.41,3.82-2.05,4.05-2.91.98-11.83-1.36-12.82,2.02h0Z"/>
    <path class="cls-22" d="M344.73,542.45c.02,1.25-3.13,4.29-4.1,5.05l-2.05-4.05c.39,0-3.47-.61,6.16-1.01h0Z"/>
    <path class="cls-55" d="M324.21,521.23c-1.46-.75-1.17-2.76-3.07-3.03.15-.96.02-2.05,0-3.03,4.55-.54,4.12,3.29,3.07,6.07h0Z"/>
    <path class="cls-27" d="M333.95,521.23c11.12,2.7,2.5,3.46-1.54,8.59,12.79,4.56-2.48,3.41-3.07,1.01l4.62-9.6h0Z"/>
  </g>
  <path class="cls-2" d="M33.87,235.12c-.19.12-.88.02-4.1,2.02-7.73-1.89,3.73-17.08,4.1-29.32,8.67,9.08,15.21,1.66-2.05,25.78l2.05,1.51h0Z"/>
  <g>
    <path class="cls-60" d="M555.05,236.13c1.47,28.35-2.68,25.39-3.07,28.31-37.5,1.22-32.83-40.75-16.93-32.35,5.33,2.82.55,15.46,20.01,4.05h0Z"/>
    <path class="cls-28" d="M527.86,234.11c1.84-.95,4.65,9.36,12.32,10.11,10.03.99,13.74-15.25,10.77,12.63-3.06,8.69-31.69-18.29-23.08-22.75h0Z"/>
  </g>
  <path class="cls-57" d="M500.67,400.92c2.14,8.03,12.4,26.76,2.57,28.31-7.07-20.31-14.01-20.02-29.76-33.36-6.57-3.46-6.32,20.25-10.77,31.84,26.65-12.88,22.46-16.21,8.21,9.6-.1,1.57,4,12.14,5.13,14.16,3.39,6.06,16.53,15.41,6.67,16.18-10.07-5.73-6.25,3.52-11.28,5.05-10.49,3.21-14.53-14.28-17.44-15.16-2.05-.62-18.93,5.31-42.06-4.05,9.83,14.38-1.3,11.05-10.26,24.26-10.7-8.53-15.13-15.08-4.62,1.51.58,3.94-1.9,1.97-4.1,2.53-8.11-12.89,1.32-21.49-18.46-20.22,6.27-5.14,14.23-11.34,18.46-18.19,19.27-3.3,45.34,5.4,32.83-3.03-3.8-4.63-22.83-20.38-26.67-21.23-.49-8.67-14.02,2.67-10.77-22.24,22.1,7.4,18.68,25.21,25.14,13.14,2.38-4.45,3.28-11.37,8.21-13.14.35,3.4,1.21,3.76,2.05,6.07-13.1.84,12.65,32.7,22.06,44.49,5.04-5.59,1.43-7.65,1.54-8.09,1.14-4.65,2.8-9.49,4.1-14.16,4.22-15.15,9.84-38.35,14.37-51.56.33,22.83,5.01,13.51,12.82,17.19,3.98,1.87,18.34,9.75,19.49,13.14l2.57-3.03-.02-.02h0Z"/>
  <path class="cls-21" d="M494.52,354.41c2.78.72,5.55,7,9.23,7.07-.56,10.62,2.9,14.91-7.18,10.11-2.99-10.02-5.24-7.35-10.26-13.14-.5-1.52.88-1.94,1.02-3.03,3.67.69,6.08-1.29,7.18-1.01h0Z"/>
  <path class="cls-8" d="M476.05,451.47c-1.13-2.02-5.22-12.58-5.13-14.16,10.1-3.25,12.49,9.69,5.13,14.16Z"/>
  <path class="cls-45" d="M504.78,355.43c-.7,2.08-.9,3.87-1.02,6.07-3.68-.08-6.45-6.36-9.23-7.07.49-4.48,3.74-6.59,4.1-7.07,3.01-.04,3.25,5.04,6.16,8.09h0Z"/>
  <path class="cls-31" d="M499.64,396.88c-.52-2.53-3.66-1.94,1.02-14.16,4.66,4.26,1.61,8.44-1.02,14.16Z"/>
  <g>
    <path class="cls-44" d="M372.43,487.86c1.36,3.28,4,3.96,4.1,4.55.13.76-5.33,4.03-7.18,10.11-1.96,6.43.14,12.02,0,12.63-.88,3.97-1.87,7.27-3.07,11.12-8.63,6.69-5.29,2.66-13.34-6.07l5.13-30.84c1.81-4.64,12.13,9.97,14.37-1.51h0Z"/>
    <path class="cls-25" d="M364.73,500c1.92-.54,1.8,2.06,1.54,4.55-.95,9.14-8.27,7.78-1.54-4.55Z"/>
  </g>
  <path class="cls-38" d="M301.64,177.49c17.34,2.75,26.12,11.11,67.71,6.07,4.52-.55,21.12-1.94,23.6-4.05l4.1,3.03c-1.04,1.65-.63,4.4-1.02,6.07-5.34,22.44-4.65,56.94,8.21,76.84v1.01c-7.19-1.75-15.22-41.02-14.37-16.68l-2.05-.51c1.32-20.89-1.46-41.84,2.57-62.68-34.45,7.1-56.83,5.6-89.77-4.05-.13-.04.72-2.35-1.54-2.02-3.32.48-5.72,8.23-2.05-4.05,1.53.77,2.99.76,4.62,1.01h0Z"/>
  <path class="cls-57" d="M409.36,169.41c1.16,1.9.96,8.7,4.1,10.61-1.45,1.81-6.63-.67-10.26-.51-3.33.15-2.64-2.55-6.16,3.03l-4.1-3.03c.51-.43,4.12-10.25,5.13-12.14,4.77,2.42,6.35-6.03,11.28,2.02h0Z"/>
  <g>
    <path class="cls-40" d="M472.97,75.39c-1.24-.03-4.63,1.78-9.75,1.01-2.16-.33-6.3-3.9-6.67-4.05,5.35-8.67,20.59-.66,16.42,3.03h0Z"/>
    <path class="cls-40" d="M436.03,72.36c1.96-3.47,5.33-3.8,9.23-3.03-5.11,3.59,7.44,11.39.52,19.21-4.46-2.84-7.8-.98-5.64,2.02,9.01,12.26-21.91,4.19-22.57-19.21.21-.12.77-2.4,2.57-4.05,1.52-1.39,1.31,6.13,3.07-3.03,5.17,2.51,9.85,6.96,10.26,13.14,6.56-.49,2.38-4.73,2.57-5.05h0Z"/>
    <path class="cls-40" d="M416.54,58.2l-4.62,5.05c-21.39-27.4-32.62,4.73-35.9,2.02-1.89-7.57.62-10.09.52-10.61-.24-1.13-12.96-3.64,6.16-15.67,3.88,2.4,4.04,5.85,4.62,6.07,1.37.52,13.69-10.03,25.14,4.55.88,1.12,2.43,6.45,4.1,8.59h0Z"/>
    <path class="cls-44" d="M366.27,48.09c-3.26,10.9-3.12,15.17-12.32,4.05-.6-.73-.64-4.66-3.07-7.07,8.64-5.47,10.12-1.47,15.39,3.03h0Z"/>
    <path class="cls-44" d="M450.4,72.36c3.1,4.12,3.49,14.87-1.54,18.19-5.28.86-7.55-3.92-8.72,0-2.16-3,1.18-4.85,5.64-2.02,6.93-7.82-5.62-15.61-.52-19.21.29.06,4.95,2.8,5.13,3.03h0Z"/>
    <g>
      <path class="cls-44" d="M382.69,38.99c-19.11,12.03-6.4,14.54-6.16,15.67.12.52-2.4,3.04-.52,10.61,3.3,2.7,14.52-29.42,35.9-2.02l4.62-5.05c5.63,7.21,8.76.85,19.49,14.16-.18.33,3.99,4.56-2.57,5.05-.41-6.18-5.1-10.63-10.26-13.14-1.76,9.16-1.57,1.64-3.07,3.03-1.79,1.65-2.35,3.93-2.57,4.05-19.5,10.79-17.42-15.95-20.01-17.19-13.39-.84-12.48,24.06-35.9,10.11-5.53-3.29-6.59-12.05-15.9-7.58,9.26,16.66-24.29-1.97-29.76-4.05,2.21-17.31,32.42,5.05,19.49-5.05-1.26-3.58,4.87-10.03,14.37-3.54-6.39-3.16-8.55,9.95-4.62,11.12l8.72-3.03c9.19,11.13,9.05,6.85,12.32-4.05,1.46,1.25,2.99,1.63,3.59,4.05-.22-7.47,4.41-18.34,12.82-13.14h.02Z"/>
      <path class="cls-44" d="M349.86,44.04c.99.68.86.84,1.02,1.01,2.43,2.42,2.47,6.35,3.07,7.07l-8.72,3.03c-3.94-1.18-1.77-14.28,4.62-11.12h0Z"/>
      <path class="cls-40" d="M402.7,58.2c12.58,7.86,6.6,20.49-1.54,1.51l1.54-1.51Z"/>
    </g>
  </g>
  <path class="cls-20" d="M423.73,175.47c-1.03,4.58-1.64,9.56,0,14.16-1.18.27-3.03.67-4.1,1.01-1.06.34-3.44-.59-4.1.51-1.76,2.93,5.43,53.42,5.13,62.17-2.84.14-12.42,10.5-16.42,12.14-12.86-19.89-13.55-54.4-8.21-76.84,11.18,5.1,10.46,3.56,18.46-4.55l-11.28-4.55c3.63-.16,8.81,2.31,10.26.51-3.14-1.92-2.94-8.72-4.1-10.61l14.37,6.07h0Z"/>
  <g>
    <path class="cls-40" d="M414.49,140.09c-1.33.8-5.74,5.53-7.18,6.07-.96.35-4.46.71-6.16,1.01-8.79-1.77-32.74-10.32-34.88-19.72-3.66-16.09,6.23-1.8,10.77,1.51,11.78,8.61,22.84,11.65,37.45,11.12h0Z"/>
    <g>
      <path class="cls-16" d="M423.73,195.69c-2.67-2.43-6.34-2.26-4.1-5.05,1.08-.34,2.93-.74,4.1-1.01.53-.12,8.82.88,9.23-3.03,9.3,8.12,1.12-11.23-2.05-25.28.26-.12,4.68,1.6,5.13.51,2.18-5.21-2.11-6.66-2.05-7.07.27-1.89,5.02-7.4,6.16-9.6,7.18,19.37,14.36,38.75,21.55,58.13-.85,6.36-22.95-17.52-32.83-13.14-.32,2.42,11.16,9.39-5.13,5.56h0Z"/>
      <path class="cls-44" d="M432.96,186.59c-3.26-2.85-5.58-14.26-5.13-19.21.36-.7-.37-4.51,3.07-6.07,3.17,14.04,11.35,33.4,2.05,25.28Z"/>
      <path class="cls-56" d="M432.96,186.59c-.41,3.92-8.72,2.91-9.23,3.03-1.64-4.6-1.03-9.58,0-14.16.43-1.9,3.09-6.13,4.1-8.09-.46,4.95,1.87,16.36,5.13,19.21h0Z"/>
    </g>
  </g>
  <g>
    <path class="cls-49" d="M107.73,242.19c.08.32-.1.71,0,1.01.84,2.68.98,1.92,1.02,2.02,4.18,11.23,13.76,24.54,9.75,24.26-26.95-16.73-8.85-2.77-14.87,6.58,2.59,3.53,6.82,5.16,8.21,6.58,3.54,3.6,2.86,4.85,3.07,5.05-22.53,19.08-3.89,7.07,4.1,11.12l-16.42,18.7c11.37,9.24,12.56-3.59,21.55-7.58-5.63,28.13-.55,14.13,10.77-3.03,10.85,9.62,7.39,11.22,7.69-2.02,5.73,1.16,14.48,8.47,18.46,13.14-.11.12-.59,1.51-2.05,2.53,1.89,28.61.43,38.96-8.21,65.21-9.96-24.6-32.48-44.99-54.38-59.65-6.46-7.1-14.11-13.15-21.55-19.21-5.2-4.25-30.16-24.03-32.83-25.28,21.49-9.42,38.79-25.59,56.43-40.44,4.24-3.58,8.17-7.44,12.31-11.12-7.2,9.63-4.27,7.54-3.07,12.14h0Z"/>
    <path class="cls-49" d="M217.51,189.63c-7.36.44-15.3-.63-22.57,0-1.74.15-6.27-.55-7.18.51,2.16,23.32,2.76,46.87,3.07,70.26.08,5.37.98,10.99,1.02,16.18.04,4.33-.02,8.77,0,13.14v5.05c0,4.76-1,10.16-1.02,15.16-.13,23.08,1.77,46.59-3.07,69.26,38.54-5.26,55.66,3.04,74.89,5.56,3.75,7.57,12.02,12.33,17.44,19.21,2.88,3.65,1.8,18.5,14.37-6.58l-15.39-8.59c9.74,3.77,16.19,11.13,19.49,3.03,6.62-2.43-8.57-10.22-8.21-13.65.34-3.2,42.86-44.54,44.11-47.52.8-1.87-4.44-2.69,5.13-13.65,8.34-7.24,17.07-15.67,26.67-21.23,23.01-13.32,15.54,4.64,19.49-34.37.43-4.22,1.79-7.93,2.05-12.14l2.05.51c-.86-24.34,7.18,14.92,14.37,16.68,2.66.65,19.06-3.46,20.52.51-11.13,26.88-1.25,16.91,0,21.23.48,1.64-9.84,12.9-10.26,13.65-15.18-8.79-11.64,1.88-24.62,11.12-.13-.94-5.23-10.06-6.16-11.12-1.18-1.34-2.09-2.95-3.59-4.05-7.69-1.47-48.52,38.9-55.91,46.51-10.69,10.99-21.29,21.82-30.78,33.87,7.7,13.59,9.79,8.93,14.37,7.58,35.71-10.57,33.29-11.01,71.82-6.07-21.34,1.22-42.47-2.49-63.09,5.05-5.4,7,7.57-1.99,13.85,1.01-10.65,1.89-29.82,7.32-34.88,17.7-3.04,6.23-.89,8.19-1.02,8.59-9.06,27.01-8.4,1.77-27.19-14.16-29.35-15.37-64.85-15.44-95.42-4.05,17.34-21.33,15.07-57.23,12.31-83.91-12.39,1.27-12.15,4.79-12.82,5.05-.72.28-2.52-.28-3.07,0-2.52-4.55-22.15-21.69-21.55-24.77.14-.7,3.02-2.24,5.13-4.55.27-.3.67-.63,1.02-1.01.18-.2,4.25-.48,4.1-3.54-.3-6.11-18.6-8.82-2.05-20.22-14.64,3.12-4.12-4.29-7.69-15.67l-13.34,13.14c-5.81-16.44-3.4-28.27-8.21-2.02-7.36-5.31-11.66-17.41-17.96-14.16-1.2-4.59-4.12-2.5,3.07-12.14,7.91-7.04,39-34.38,42.06-38.42.69,0,1.87-.25,2.05.51,4,16.58-13.08,42.56,26.16,70.26l.52-72.79c.76-4.38,23.01-.48,35.9,0v.03h0Z"/>
    <g>
      <path class="cls-5" d="M152.88,284.66c-.36.37-.75.71-1.02,1.01-11.21,2.12-9.02,9.8-9.23,19.21-.3,13.24,3.15,11.65-7.69,2.02-11.32,17.16-16.41,31.16-10.77,3.03.03-.15.31.96,1.02-3.03.02-.11,1.93.35,2.05-.51,2.33-15.75-7.29-13.99-12.31-18.7-.21-.2.47-1.45-3.07-5.05,4.42-3.32-7.76-13.04-4.62-15.16.93-.63,19.6,14.11,17.96,6.58l-16.42-28.81c-.04-.11-.19.66-1.02-2.02,24.44,15.18,19.62,34.6,36.42,7.07,1.65,3.83-4.53,14.62-2.57,20.72.65,2.02,12.21,9.74,11.28,13.65h0Z"/>
      <path class="cls-35" d="M152.88,284.66c.91-3.9-10.63-11.62-11.28-13.65-1.96-6.11,4.22-16.89,2.57-20.72-16.8,27.52-11.98,8.11-36.42-7.07-.1-.31.08-.69,0-1.01,6.28-3.25,10.59,8.85,17.96,14.16,4.8-26.25,2.4-14.42,8.21,2.02l13.34-13.14c3.57,11.38-6.95,18.78,7.69,15.67-16.55,11.41,1.75,14.11,2.05,20.22.15,3.06-3.92,3.35-4.1,3.54h0Z"/>
      <path class="cls-35" d="M151.85,285.66c-2.12,2.31-4.99,3.85-5.13,4.55-.6,3.08,19.02,20.22,21.55,24.77-1.15.58-6.93,2.74-7.18,3.03-3.98-4.68-12.73-11.98-18.46-13.14.21-9.41-1.97-17.08,9.23-19.21h0Z"/>
      <path class="cls-33" d="M125.17,306.9c-.71,3.99-.99,2.88-1.02,3.03-8.99,3.99-10.17,16.82-21.55,7.58l16.42-18.7c3.17,1.61,3.42,6.03,6.16,8.09h0Z"/>
      <path class="cls-33" d="M111.84,282.64c-1.38-1.41-5.62-3.05-8.21-6.58,6.02-9.34-12.06-23.3,14.87-6.58,4.02.28-5.56-13.04-9.75-24.26l16.42,28.81c1.64,7.53-17.02-7.2-17.96-6.58-3.15,2.13,9.04,11.85,4.62,15.16h0Z"/>
      <path class="cls-5" d="M125.17,306.9c-2.72-2.05-2.98-6.48-6.16-8.09-8-4.05-26.63,7.97-4.1-11.12,5.03,4.71,14.65,2.95,12.31,18.7-.13.85-2.03.4-2.05.51h0Z"/>
    </g>
  </g>
  <path class="cls-2" d="M184.68,421.14c5.41,1.15,10.56,3.46,15.39,6.07,21.62,11.68,30.4,34.96,44.11,53.58-3.13,1.21-.5,2.74-4.1,4.05-8.36-6.35-17.78-10.69-26.67-16.17l9.23-2.53c-18.26-22.07-36.2-34.75-65.66-37.91,6.87-4.51,14.85-3.95,21.55-8.09,4.94.19,5.29.82,6.16,1.01h0Z"/>
  <path class="cls-41" d="M150.82,387.78c-1.96,5.94-3.2,16.13-4.1,7.58-3.42-4.21-2.91,11.85-3.07,12.63-1.61,7.49-9.55,28.8-12.31,25.28,7.5-10.83-10.83-40.28-8.21-72.28l3.59-.51c11.52,9.58,15.88,18.42,20.52,32.35l3.59-5.05h0Z"/>
  <path class="cls-11" d="M213.41,468.65c-4.64-2.87-9.3-6.82-14.37-10.11-2.68-1.73-5.28-.45-7.69-2.02-1.96-1.27-2.68-5.32-4.62-7.07-15.09-13.63-18.33-6.8-44.11-5.05.03-1.81,12.31-14.84,14.37-16.18,29.46,3.17,47.4,15.85,65.66,37.91l-9.23,2.53h0Z"/>
  <g>
    <path class="cls-53" d="M41.05,358.46c.32-.08.69.06,1.02,0-1.23,5.49,12.31,1.41,16.42,15.67-8.7,10-29.48,11.71-30.78-4.05,4.73-10.51,10.56-8.04,11.8-8.59,1.96-.88,1.37-2.99,1.54-3.03h0Z"/>
    <g>
      <path class="cls-41" d="M81.06,321.05c2.61,5.26,3.84,3.21,1.02,8.09-2.23,3.86-6.99,5.29-7.18,6.58-.29,2.04,3.95,4.28,4.1,4.55,10.43,17.16,11.65,9.55,3.07,18.19-4.81,1.31-1.25-.24-4.62-2.02-2.05,10.44-3.43,1.4-7.69,8.09-8.43-1.53-18.27-7.75-27.7-6.07-.33.06-.71-.08-1.02,0-6.33-4.51,10.84-13.65,21.03-22.24,10.47-8.82,14.74-19.21,18.98-15.16h0Z"/>
      <path class="cls-8" d="M82.09,358.46c-1.05,1.05-5.78,5.86-6.16,6.07-7.89,4.42-5.79.07-6.16,0,4.26-6.69,5.64,2.35,7.69-8.09,3.37,1.78-.19,3.34,4.62,2.02h0Z"/>
      <path class="cls-39" d="M86.19,334.2c-2.78-.86-4.48,3.09-7.18,6.07-.16-.26-4.4-2.5-4.1-4.55.18-1.28,4.95-2.71,7.18-6.58,4.53,2.49,3.9,4.8,4.1,5.05h0Z"/>
    </g>
  </g>
  <g>
    <path class="cls-46" d="M199.04,458.55c5.07,3.28,9.72,7.25,14.37,10.11,8.89,5.48,18.32,9.83,26.67,16.17-5.18,1.87-23.59,1.19-31.81,2.02-8.26.84-15.24,3.69-20.52,4.05-6.36.43-3.98-.05-7.18-15.67-1.11-1-6.24-.47-8.21-.51l-10.26-12.14c.28-.16,1.97-1.81,5.13-4.05.41-.29,1.64-.72,2.05-1.01.31,2.99,22.24,3.16,29.76,1.01h0Z"/>
    <path class="cls-13" d="M103.63,476.74c-1.26-13.12-9.1-25.82,1.02-35.38l25.65,16.68c-34.47,5-4.34,22.36-26.67,18.7h0Z"/>
    <path class="cls-57" d="M186.73,449.44c-9.87-6.07-12.63-1.12-24.11,0-8.29,8.56,14.62-.75,8.72,8.09.84-3.63-3.64-.18-5.13,0-8.05,1-3.2-.81-10.26-2.02-7.96-1.37-10.44.41-10.77,0-.36-.44-2.58-10.55-2.57-11.12,25.8-1.74,29.04-8.57,44.11,5.05h0Z"/>
    <g>
      <path class="cls-46" d="M86.19,334.2c32.69,41.69,22.68,55.8,45.15,99.08,2.75,3.52,10.71-17.79,12.31-25.28,5.18-6.4,12.19-15.35,16.42-23.25l5.64,1.01c5.35,16.35-15.21,31.98-9.75,36.4-.52,6.91,14.54-2.34,22.57-2.02-6.68,4.14-14.68,3.58-21.55,8.09-2.04,1.34-14.33,14.36-14.37,16.18,0,.57,2.2,10.68,2.57,11.12.34.41,2.81-1.37,10.77,0-4.89.88-39.2,6.53-40.52,8.09-2.75,3.24,4.78,24.24-11.8,13.14,22.33,3.66-7.8-13.7,26.67-18.7l-25.65-16.68c3.21-3.03,6.96-3.18,7.18-4.55.64-4.1-28.07-30.32,1.02-15.16-1.1-9.9-9.9-19.27,0-21.23-2.79-3.36-4.45-.35-4.62-.51-.32-.28-4.43-6.7-4.62-7.07-.2-.4,1.9-5.16-1.54-5.05-8.11,8.67-31.24,27.55-24.11,29.32-1.76,2.17-5.86,15.68-8.21,7.58-1.11-11.6,3.9-22.78,4.1-24.26.58-4.31-1.16-6.33-1.02-7.58,16.27-12.7,16.9-12.43,11.28-20.22-.86-1.2-6.54-6.07-8.21-8.09.38-.21,5.11-5,6.16-6.07,8.58-8.66,7.35-1.04-3.07-18.19,2.7-2.98,4.41-6.93,7.18-6.07h.02Z"/>
      <path class="cls-54" d="M103.63,392.83c-8.99,7.36-18.33,15.25-25.65,24.26-7.14-1.77,16-20.65,24.11-29.32,3.43-.11,1.33,4.65,1.54,5.05h0Z"/>
      <path class="cls-39" d="M72.85,392.83c.3-2.9-.46-7.23,0-8.59.49-1.48,9.78-8.52,11.28-11.63,5.61,7.78,4.99,7.52-11.28,20.22Z"/>
    </g>
    <path class="cls-32" d="M171.34,457.53c-.83.07-1.88-.12-2.05,0-.41.29-1.64.72-2.05,1.01l-1.02-1.01c1.49-.18,5.96-3.63,5.13,0h0Z"/>
    <path class="cls-57" d="M168.27,314.99c.55-.28,2.35.28,3.07,0,3.72,25.86,1.13,46.53-11.28,69.75-4.23,7.91-11.24,16.85-16.42,23.25.17-.79-.35-16.84,3.07-12.63.9,8.55,2.15-1.64,4.1-7.58.18-.52-.18-1.5,0-2.02,8.64-26.25,10.1-36.59,8.21-65.21,1.46-1.02,1.95-2.41,2.05-2.53.25-.29,6.03-2.44,7.18-3.03h0Z"/>
    <path class="cls-57" d="M294.46,412.04h4.1c-14.22,31.02-10.71,9.02-21.03,3.03-.71-.41-3.59.41-4.62,0-1.32-.53-1.76-.64-3.07-1.01-10.28-2.89-18.38-3.5-29.24-2.02-4.08.56-9.83,4.35-13.34,3.03-18.1,8.44-40.37,2.26-27.19,12.14-4.82-2.61-9.98-4.91-15.39-6.07-1.56-7.04-12.09,1.16,0-13.65-2.03-12.21-17.6,7.85-28.73,14.66-5.47-4.42,15.1-20.04,9.75-36.4l-5.64-1.01c12.42-23.23,15-43.9,11.28-69.75.67-.26.43-3.78,12.82-5.05,2.75,26.69,5.03,62.58-12.31,83.91,30.55-11.4,66.06-11.32,95.42,4.05,18.78,15.92,18.12,41.17,27.19,14.16h0Z"/>
    <path class="cls-57" d="M184.68,421.14c-.87-.18-1.21-.81-6.16-1.01-8.03-.32-23.09,8.93-22.57,2.02,11.14-6.81,26.69-26.87,28.73-14.66-12.09,14.81-1.56,6.61,0,13.65h0Z"/>
    <path class="cls-39" d="M186.73,449.44c1.95,1.75,2.66,5.8,4.62,7.07,2.41,1.57,5.01.29,7.69,2.02-7.52,2.16-29.44,1.98-29.76-1.01.18-.12,1.23.07,2.05,0,5.9-8.84-17.01.47-8.72-8.09,11.49-1.12,14.23-6.07,24.11,0h0Z"/>
  </g>
  <g>
    <path class="cls-53" d="M208.28,486.86c.05.66-.12,1.38,0,2.02.25,1.43.31,1.74,1.02,3.03l-9.23,12.63c1.54,2.36,10.2-5.05,12.31-7.58.05-.06.25.12,1.02-1.01,11.47-3.17,15.88-3.33,12.31,10.11-9.35,9.5-13.97,8.65-15.39,12.14-9.52-.87-12.81-3.07-18.46-10.11-2.79-3.48-4.19-9.19-7.18-13.14,2.54-1.63,5.06-1.33,3.07-4.05,5.27-.35,12.26-3.2,20.52-4.05h0Z"/>
    <path class="cls-52" d="M225.72,506.07c-2.66,10.01-7.6,4.29-4.1,15.16.11.33-.13.76,0,1.01-1.78-.11-11.72-.16-12.31,0,1.51-1.92.81-3.52,1.02-4.05,1.42-3.48,6.04-2.64,15.39-12.14h0Z"/>
    <path class="cls-2" d="M212.38,496.96c-2.11,2.53-10.77,9.94-12.31,7.58l9.23-12.63c.15.26,3.32,1.92,3.07,5.05h0Z"/>
  </g>
  <path class="cls-9" d="M213.41,495.95c-.78,1.14-.98.96-1.02,1.01.23-3.13-2.94-4.79-3.07-5.05-.71-1.29-.77-1.61-1.02-3.03,5.81,3.89,13.14-4.66,5.13,7.07h0Z"/>
  <path class="cls-53" d="M221.61,522.24c-.13-.25.11-.68,0-1.01,5.31.51,21.01-20.78,22.57-20.22,2.13,10.64-10.57,15.67-15.9,24.26-3.95-1.61-.87-2.7-6.67-3.03h0Z"/>
  <path class="cls-20" d="M414.49,301.85c-3.64,6.58-.04,5.18,0,10.11.2,26.38,3.31,52.9,8.21,78.86-.21,1.97-1.34,3.02-1.02,6.07-4.93,1.78-5.83,8.69-8.21,13.14-3.89-9.43-13.44-20.7-14.37-22.24-.16-.26-2.42-1.01-4.1-4.55-4.8-10.07-6.37-50.76-5.13-62.68.1-.9,4.31-4.01,0-5.56.03-.66.09-1.37,0-2.02,12.98-9.24,9.45-19.92,24.62-11.12h0Z"/>
  <path class="cls-49" d="M465.79,301.85c-.28,3,.17,5.6,2.05,8.09l2.05,16.18c-17.71,15.86-43.64,40-47.2,63.7-.05.33.04.68,0,1.01-4.9-25.96-8.01-52.48-8.21-78.86l14.37-7.07c6.78,38.92,8.46,7.31,13.85,8.09,2.67,1.85,1.14,4.7,1.54,7.07.8,4.72,1.05,11.76,1.54,12.14,28.38-21.21,13.62-26.81,15.9-29.82.85-1.11,3.81-.16,4.1-.51h0Z"/>
  <g>
    <path class="cls-16" d="M444.24,320.04c-.41-2.39,1.13-5.22-1.54-7.07-5.39-.77-7.07,30.84-13.85-8.09l2.05.51c3.31,22.15,6.14-2.83,10.77-2.53l17.96,14.66-11.8,10.61c-3.72-.49.81-8.96-3.59-8.09h0Z"/>
    <g>
      <path class="cls-44" d="M470.92,240.17c.19.16.45-.07,4.1,3.03-17.8,18.51-5.23,21.29-5.13,31.84.02,2.48-3.96,12.19-4.1,14.16-.1,1.28,6.58,5.07,0,12.63-.29.34-3.26-.61-4.1.51-2.29,3.01,12.47,8.61-15.9,29.82-.5-.37-.74-7.41-1.54-12.14,4.4-.87-.13,7.6,3.59,8.09l11.8-10.61-17.96-14.66c-4.63-.31-7.47,24.68-10.77,2.53l-2.05-.51-14.37,7.07c-.04-4.94-3.64-3.54,0-10.11.41-.75,10.74-12,10.26-13.65-1.25-4.32-11.13,5.65,0-21.23-1.46-3.97-17.86.14-20.52-.51v-1.01c3.99-1.64,13.58-11.98,16.42-12.14,9.97-.52,20.08,20.18,13.85-15.16,24.02,17.71,15,3.03,20.52,3.03,4.57,0,1.59,16.53,15.9-1.01h0Z"/>
      <path class="cls-16" d="M456.04,279.61c2.44,7.16,4.65,22.44-1.54,6.58l1.54-6.58Z"/>
    </g>
  </g>
  <path class="cls-44" d="M451.42,425.18c-1.3,4.67-2.97,9.51-4.1,14.16-13.39-15.61-9.94-18.67-11.28-25.28-.66-3.22-1.95-1.7-2.05-2.53-.03-.23,1.4-.31,1.02-4.55,3.49-3.97,6.08-8.97,9.23-13.14,3.47-4.59,10.43-13.68,15.39-15.67-3.31,17.1-17.82,41.78-8.21,47.01h0Z"/>
  <path class="cls-53" d="M443.22,387.78c-.18-2.39-3.89,3.22-5.13,5.05-.28.41-4.74,3.07-5.13,8.59-.55,7.73,2.02,5.2,2.05,5.56.38,4.25-1.05,4.31-1.02,4.55.11.83,1.39-.69,2.05,2.53-3.84,6.95-10.51-6.21-12.32-11.12-.85-2.31-1.7-2.66-2.05-6.07-.31-3.05.81-4.1,1.02-6.07.04-.34-.05-.68,0-1.01,7.22-4.01,12.55-12.03,18.98-17.19,36.39-29.2,13.33-5.8,1.54,15.16h0Z"/>
  <path class="cls-12" d="M438.09,392.83c-2.85,4.75,1.46,6.53,4.1,1.01h2.05c-3.15,4.17-5.75,9.17-9.23,13.14-.03-.35-2.61,2.16-2.05-5.56.4-5.52,4.85-8.18,5.13-8.59Z"/>
  <path class="cls-61" d="M443.22,387.78c-1.21,2.41-.89,5.76-1.02,6.07-2.65,5.52-6.96,3.74-4.1-1.01,1.24-1.83,4.95-7.44,5.13-5.05h0Z"/>
  <path class="cls-23" d="M500.67,343.29c-.16.17.44.83-2.05,4.05-.37.48-3.62,2.6-4.1,7.07-1.1-.29-3.51,1.7-7.18,1.01,1.15-8.22,2.18-18.58,13.34-12.14h0Z"/>
  <path class="cls-57" d="M176.48,188.61c1.05-.09,1.8,2.08,2.05,0l3.07,1.01-.52,72.79c-39.24-27.7-22.16-53.68-26.16-70.26-.18-.75-1.36-.52-2.05-.51.77-1.01.98-.95,1.02-1.01,18.58.64,20.42-1.98,21.55-2.02.05,0-.03.09,1.02,0h0Z"/>
  <path class="cls-53" d="M150.82,159.3c-5.61,12.8,3.77,18.1,5.13,23.25-6.43-3.15-31.1,29.67-35.9,19.72-1.18-2.43,5.89-46.32,6.16-53.58.06-1.72-.45-3.58-2.05-4.55,1.74-2.43,8.13-.77,4.1-14.66,18.01-4.49,7.11,21.15,10.26,26.28.37.6,6.24.71,12.31,3.54h0Z"/>
  <path class="cls-46" d="M175.44,185.58v3.03c-1.13.04-2.96,2.66-21.55,2.02,2.46-3.65,3.07-4.2,2.05-8.09-1.35-5.15-10.74-10.46-5.13-23.25,6.04,2.81,21.36,20.22,24.62,26.28h0Z"/>
  <g>
    <path class="cls-44" d="M193.92,141.09c-5.52,1.61-4.34-1.77-6.16-6.07,7.87-2.04,2.29-8.91,3.07-10.61.59-1.27,10.11-3.01,21.55-18.19l-2.05-1.51c4.61-2.43,8.01-5.37,12.31-8.09l4.1,2.53c-9.46,13.8-19.22,31.69-32.83,41.96h0Z"/>
    <path class="cls-44" d="M152.88,130.99c0,.67-.29,1.74.52,2.02,1.62.56,32.7,2.45,34.37,2.02,1.82,4.28.64,7.68,6.16,6.07-6.03,4.54-5.21,3.25-10.26,6.07-12.38-4.43-32.98-1.32-36.94-16.68,2.08.47,4.04.48,6.16.51h0Z"/>
    <path class="cls-25" d="M210.33,104.71l2.05,1.51c-11.44,15.19-20.95,16.92-21.55,18.19-.8,1.71,4.79,8.57-3.07,10.61-1.66.43-32.74-1.47-34.37-2.02-.8-.28-.52-1.35-.52-2.02,7.23.11,25.4-3.35,32.31-6.07,17.83-7,17.46-18.25,18.46-19.21.24-.23,5.74-.52,6.67-1.01h0Z"/>
  </g>
  <g>
    <path class="cls-21" d="M325.24,87.52c21.07,28.23,40.54,65.96,75.92,59.65,1.69-.31,5.18-.65,6.16-1.01-2.25,6.73-5.91,14.98-9.23,21.23-1,1.89-4.62,11.7-5.13,12.14-2.48,2.11-19.07,3.5-23.6,4.05-17.89-3.15-37.66-1.14-54.89-7.07-8.2-2.83-14.7-11.35-18.98-7.07-2.28-7.46.17-9.75,0-11.12,10.64-3.56,5.79-15.82,11.28-14.16,3.77,2.11,9.46,5.79,13.34,2.53-34.58-33.59-.04-10.13,5.13-16.18,2.41-2.83-12.31-12.5-12.31-14.16,0-1.41,14.33-11.57,5.64-13.65-22.14,13.06-2.54-7.33-5.64-19.21,7.36-5.12,4.67.97,12.31,4.05h0Z"/>
    <path class="cls-20" d="M325.24,87.52c-7.65-3.08-4.95-9.16-12.31-4.05-2.43,1.69-10.99,10.98-11.8,11.12-7.57,1.39-9.32-20.01-23.08,2.02-.24-.35-4.97-4.9-6.16-6.07-1.25-1.24-1.86-4.9-4.1-1.51-4.16,16.8-3.58,6.59-17.96,7.58-6.8-2.92,15.82-21.89,3.59-15.16,11.61-16.29,22.31-33.21,33.85-49.54,2.58,9.2,29.96,44.89,37.96,55.61h.02,0Z"/>
    <path class="cls-54" d="M271.88,90.55c-4.46-3.49-3.86,5.2-6.67,11.12-31.75-8.66-5.27,3.15-5.64,10.61-.46,9.14-25.87,30.91,8.21,19.72-4.99,13.81-23.64,25.11,6.67,12.14l1.54,1.51c-25.12,25.87-2.11,4.87,12.31,10.61-.52,5.01.92,10.21-1.02,15.16-.87-1.8-1.25-3.89-1.54-4.05-2.41-1.26-26.74,7.22-40.52,9.1-24.67,3.36-57.12,1.6-70.79-21.23,12.65-2,26.96-8.66,36.42-17.19,2.7-2.44,36.79-48.5,42.58-56.61,12.23-6.73-10.39,12.24-3.59,15.16,14.38-1,13.79,9.22,17.96-7.58,2.25-3.38,2.85.28,4.1,1.51h-.02Z"/>
    <path class="cls-20" d="M369.35,183.56c-41.59,5.04-50.37-3.32-67.71-6.07-3.43-3.39-4.59-2.94-6.16-8.09,4.28-4.28,10.78,4.25,18.98,7.07,17.22,5.94,36.99,3.92,54.89,7.07h0Z"/>
    <path class="cls-3" d="M277.02,175.47c-.34,12.72,2.49,4.15,8.21,11.63l-5.13,5.56c1.25-1.69,2.5-3.18,4.1-4.55-2.17-2.66-5.45-2.16-8.21-3.54-.19-.1.53-3.39-1.54-4.05-2.75-.87-15.67,6.62-56.94,9.1-12.9-.48-35.15-4.38-35.9,0l-3.07-1.01c.89-1.56.83-6.59,1.54-7.07,2.84-1.97,27.42,5.38,69.25,0,9.49-1.22,18.47-3.75,27.7-6.07h0Z"/>
    <path class="cls-54" d="M287.27,171.42c.68,1.42,1.42,2.18,1.02,4.05-4.46,2.1-3.3-2.43-4.62-3.03-2.26-1.04-2.02,1.87-6.67,3.03-9.23,2.32-18.21,4.84-27.7,6.07l-4.1-5.05c13.78-1.88,38.11-10.35,40.52-9.1.29.15.67,2.24,1.54,4.05h.02,0Z"/>
  </g>
  <g>
    <path class="cls-57" d="M222.64,96.62c-4.31,2.72-7.7,5.65-12.31,8.09-.92.49-6.43.78-6.67,1.01-1,.96-.64,12.21-18.46,19.21-6.92,2.71-25.09,6.17-32.31,6.07-2.12-.03-4.08-.04-6.16-.51,3.96,15.36,24.55,12.25,36.94,16.68-4.81,2.68-26.34,10.8-9.23,8.09,13.67,22.82,46.12,24.6,70.79,21.23l4.1,5.05c-41.84,5.38-66.41-1.97-69.25,0-.71.49-.65,5.51-1.54,7.07-.25,2.08-1-.09-2.05,0,.48-3.43-.95-2.89-1.02-3.03-3.27-6.07-18.58-23.48-24.62-26.28-6.08-2.83-11.95-2.93-12.31-3.54-3.14-5.14,7.74-30.78-10.26-26.28,4.03,13.89-2.35,12.23-4.1,14.66-1.04,1.45-4.47,4.11-5.13,5.56-1.21,2.66-6.78,33.57-9.23,42.96-2.51-3.08-1.2-8.11-1.02-11.12,1.57-27.84-4.7-23.53-4.1-27.8.72-5.23,16.49-8.49-4.1-20.22,8.42-21.27,1.66-19.22-6.16-39.43,15.63,7.12,16.33,20.66,35.4,9.6,12.42,25.11,38.17,17.33,38.47,8.09.09-2.77-10.39-20.16,4.62-21.23,2.14-.15,10.14,4.19,11.28,4.05,1.88-.23,15.15-15.37,34.88-11.12,7.31,1.57,2.85,7.98,16.93,4.55-3.84,6.21-8.65,5.64-13.34,8.59h0Z"/>
    <path class="cls-57" d="M198.53,108.74l1.54,2.53c-24.68,25.23-32.27,4.71-1.54-2.53Z"/>
    <path class="cls-24" d="M176.48,188.61c-1.05.09-.97,0-1.02,0v-3.03c.08.14,1.5-.39,1.02,3.03Z"/>
  </g>
  <g>
    <path class="cls-53" d="M59.51,184.58c-4.09.38-5.95,13.02-8.21,16.68-1.17,1.9-5.92,3.88-8.72,9.6-25.24-14.27,23.74-9.32-8.72-24.26.21-.12.56-3.67,2.57-4.05,2.47-.46,8.81,7.38,8.72,2.02,6.82,10.52,10.2,5.39,5.13-5.05,3.54,0,9.09.83,9.23,5.05h0Z"/>
    <path class="cls-53" d="M50.28,179.51c5.07,10.44,1.69,15.57-5.13,5.05-2.89-4.45-2.47-5.05,5.13-5.05Z"/>
    <g>
      <path class="cls-35" d="M59.51,184.58c4.24,4.88-5.6,16.85-5.13,17.69,10.48-4.91,22.17-3.25,23.6,10.11,1.04,9.81-4.02,10.98-6.16,19.21,2.07,3.06,5.54-1.16,8.21-4.55l10.26,4.05c-2.4,1.63-4.65,2.69-7.18,4.05-28.52,15.19-6.33,7.93-15.39-17.69-6.95-6.82-16.47,9.14-27.7,16.68-.49.33-3.25-.8-6.16,1.01l-2.05-1.51c17.27-24.13,10.71-16.71,2.05-25.78-2.8-2.93-5.5-6.09-8.21-9.1,12.15,8.1,8.02-2.23,4.1-10.11,1.42-1.24,2.14-.92,4.1-2.02,32.46,14.94-16.52,10,8.72,24.26,2.8-5.72,7.56-7.71,8.72-9.6,2.26-3.66,4.12-16.3,8.21-16.68h0Z"/>
      <path class="cls-53" d="M29.77,188.61c3.92,7.88,8.04,18.2-4.1,10.11-.63-.71-.98-.96-1.02-1.01-3.25-6.98,4.66-8.69,5.13-9.1h0Z"/>
      <path class="cls-53" d="M53.87,205.8c7.29,4.32-5.74,20.59-8.21,20.22-5.33-1.58,2.63-10.69,8.21-20.22Z"/>
    </g>
  </g>
  <path class="cls-7" d="M290.36,154.24c-.83,11.18-.08,30.28-2.05,21.23.39-1.87-.34-2.63-1.02-4.05,1.96-4.96.52-10.15,1.02-15.16.18-1.7-.32-2.3,2.05-2.02Z"/>
  <g>
    <path class="cls-53" d="M247.26,514.15c-.36,6.53-8.07,16.35-12.82,21.23-2.79-4.01-11.54-10.52-12.82-13.14,5.81.34,2.71,1.42,6.67,3.03,5.33-8.59,18.03-13.62,15.9-24.26.48,8.94,3.11,12.47,3.07,13.14h0Z"/>
    <path class="cls-2" d="M240.6,515.16c4.45,2.75-7.89,20.24-10.77,11.63l10.77-11.63Z"/>
  </g>
  <path class="cls-20" d="M399.1,387.78c.91,1.54,10.48,12.81,14.37,22.24-6.46,12.06-3.03-5.74-25.14-13.14-3.25,24.92,10.28,13.57,10.77,22.24-.6-.13-1.41.1-2.05,0-7.71-3.07-17.36-2.27-25.65-3.03-22.95-2.1-45.59-5.52-68.73-4.05h-8.21c.14-.41-2.01-2.36,1.02-8.59,5.06-10.37,24.23-15.81,34.88-17.7,26.41-4.67,43.47-.69,68.73,2.02h0Z"/>
  <path class="cls-18" d="M397.06,419.12c.64.1,1.45-.13,2.05,0,3.84.85,22.87,16.6,26.67,21.23-15.6-8.14-35.58-11.39-52.32-4.05-11.96-1.01-20.02,24.9-24.62,19.21,5.25-7.62,20.73-32.47,28.73-35.38,2.82-1.03,16.18-1.5,19.49-1.01h0Z"/>
  <path class="cls-29" d="M397.06,419.12c-3.32-.48-16.67-.02-19.49,1.01l-6.16-4.05c8.29.76,17.94-.03,25.65,3.03h0Z"/>
  <path class="cls-50" d="M272.91,415.07l-1.02,1.01c-.07-.12-1.85-.4-2.05-2.02,1.31.37,1.75.49,3.07,1.01h0Z"/>
  <path class="cls-54" d="M423.73,402.94c1.8,4.91,8.46,18.07,12.32,11.12,1.35,6.6-2.1,9.67,11.28,25.28-.11.44,3.5,2.5-1.54,8.09-9.41-11.79-35.16-43.63-22.06-44.49Z"/>
  <g>
    <path class="cls-14" d="M373.46,436.3c-8.93,3.92-14.49,12.46-19.49,20.22-1.68,2.6-10.65,13.9-7.69,16.18,21.15-6.23,12.31-4.92,15.9-13.14,4.82-11.06,20.3-9.1,28.21-17.19,1.19-.52,1.64,1.17,2.57,1.01-4.23,6.86-12.2,13.07-18.46,18.19-11.49,9.4-24.56,16.48-34.88,27.3-5.24,6.07,3.44-10.13-4.1-11.12,4.97-7.02,8.5-15.22,13.34-22.24,4.61,5.69,12.66-20.22,24.62-19.21h0Z"/>
    <path class="cls-10" d="M425.78,440.35c12.51,8.44-13.56-.27-32.83,3.03-.91.15-1.37-1.52-2.57-1.01-7.91,8.09-23.39,6.13-28.21,17.19l-8.21-3.03c5-7.75,10.56-16.31,19.49-20.22,16.73-7.34,36.72-4.09,52.32,4.05h0Z"/>
    <path class="cls-44" d="M362.17,459.56c-3.59,8.22,5.24,6.91-15.9,13.14-2.96-2.27,6.02-13.57,7.69-16.18l8.21,3.03h0Z"/>
  </g>
  <g>
    <path class="cls-44" d="M306.77,144.13c-9.46-5.28-11.16-15.43-15.39-3.03-.05.15-.24-.82-1.02,3.03-.82,4.05.04,9.6,0,10.11-2.37-.28-1.88.33-2.05,2.02-14.42-5.75-37.42,15.25-12.31-10.61l-1.54-1.51c-30.3,12.98-11.66,1.68-6.67-12.14,9.69-8.93,16.77-5.63,20.52-12.63.44-2.88-9.53-21.71-10.26-22.75,13.76-22.04,15.52-.63,23.08-2.02.81-.14,9.37-9.43,11.8-11.12,3.1,11.88-16.5,32.27,5.64,19.21,8.69,2.08-5.64,12.24-5.64,13.65,0,1.65,14.73,11.33,12.31,14.16-5.17,6.05-39.72-17.42-5.13,16.18-3.89,3.26-9.56-.42-13.34-2.53v-.02h0Z"/>
    <path class="cls-44" d="M306.77,144.13c-5.51-1.66-.64,10.59-11.28,14.16-.62-5.17-1.18-10.28-3.07-15.16-.32-.83-.92-1.21-1.02-2.02,4.23-12.39,5.93-2.24,15.39,3.03h0Z"/>
    <path class="cls-44" d="M271.88,90.55c1.19,1.17,5.9,5.71,6.16,6.07.73,1.04,10.7,19.87,10.26,22.75-3.75,7.01-10.84,3.71-20.52,12.63-34.08,11.2-8.67-10.58-8.21-19.72.37-7.47-26.11-19.28,5.64-10.61,2.81-5.92,2.21-14.62,6.67-11.12h0Z"/>
    <path class="cls-37" d="M292.41,143.12l-2.05,1.01c.78-3.85.97-2.89,1.02-3.03.1.81.7,1.19,1.02,2.02h0Z"/>
  </g>
  <path class="cls-54" d="M403.2,179.51l11.28,4.55c-8.02,8.11-7.29,9.65-18.46,4.55.4-1.67-.02-4.41,1.02-6.07,3.52-5.59,2.83-2.89,6.16-3.03h0Z"/>
  <path class="cls-8" d="M263.68,383.73c.11.77-.24,1.11-1.02,1.01-19.24-2.52-36.35-10.82-74.89-5.56,4.84-22.67,2.95-46.17,3.07-69.26,27.65,12.8,68.22,71.35,72.84,73.8h0Z"/>
  <path class="cls-36" d="M399.1,387.78c-25.26-2.71-42.33-6.69-68.73-2.02-6.28-3-19.25,5.98-13.85-1.01,20.62-7.54,41.75-3.83,63.09-5.05,1.24.16,7.66,2.57,8.21,1.51-.78-19.49-1.79-39.14-1.02-58.64.02-.41,2.94-3.93,3.07-7.58,4.31,1.55.1,4.66,0,5.56-1.25,11.92.33,52.61,5.13,62.68,1.68,3.54,3.95,4.28,4.1,4.55h0Z"/>
  <g>
    <path class="cls-8" d="M194.94,189.63l-.52,2.02c15.98,2.31,66.98-3.39,72.84-2.02.76.18.53,1.34.52,2.02-1.44,1.47-12.14,15.92-14.37,19.21-3.33-.12-8.99.55-11.8,2.02-2.03,1.07-30.92,26.83-34.37,30.33-7.57,7.68-11.68,16-16.41,17.19-.32-23.39-.91-46.94-3.07-70.26.9-1.05,5.45-.35,7.18-.51Z"/>
    <path class="cls-14" d="M275.99,184.58c-.38,3.07-6.37,5.21-8.21,7.07,0-.68.25-1.84-.52-2.02-5.86-1.37-56.87,4.33-72.84,2.02l.52-2.02c7.27-.63,15.2.44,22.57,0,41.26-2.47,54.18-9.97,56.94-9.1,2.08.65,1.34,3.95,1.54,4.05h0Z"/>
  </g>
  <path class="cls-60" d="M279.07,388.79l15.39,8.59c-12.57,25.07-11.49,10.23-14.37,6.58,2.65-20.44-19.8-13.24-13.34-20.22,3.86,1.75,8.35,3.52,12.31,5.05h0Z"/>
  <path class="cls-29" d="M266.76,383.73c-6.46,6.98,15.98-.22,13.34,20.22-5.42-6.88-13.7-11.64-17.44-19.21.78.11,1.13-.24,1.02-1.01.54.29,2.44-.29,3.07,0h0Z"/>
  <g>
    <path class="cls-34" d="M302.66,412.04l2.57,24.26,20.01-4.55c-6.28,17.29-13.4,13.9,0,23.25-3.79,5.13-30.06-5.28-6.16,17.19-15.76,15.71-19.64-19.12-29.24,18.7-9.46,2.95-8.28-14.99-12.31-16.17-6.16-1.81-35.46,19.22-6.67-16.68-33.53-3.35-5.5-8.65-6.16-13.14-.39-2.63-25.76-14.73,7.18-10.11.96-5.07,2.3-14.09,0-18.7l1.02-1.01c1.02.41,3.9-.41,4.62,0,10.32,5.99,6.82,27.99,21.03-3.03h4.11Z"/>
    <path class="cls-4" d="M280.09,468.65c-1.8-3.71-3.37-7.49-5.13-11.12-2.28-4.69,3.97-4.09-13.34-6.58,12.5-7.03.46-8.57,1.02-12.14,20.12-.72,10.23-1.01,14.87-17.7,17.2,26.77,17.34,3.04,21.55,3.03,4.88,14.54-5.32,21.45,15.39,13.14,11.78,8.51-28.05,15.29-3.59,30.84-12.3,8.14-14.4-16.65-23.08,16.68-1.92-5.68-5.09-10.8-7.69-16.17h0Z"/>
    <path class="cls-59" d="M280.09,468.65c-23.76,9.32-14.14,3.42-5.13-11.12,1.77,3.63,3.34,7.41,5.13,11.12Z"/>
  </g>
  <g>
    <path class="cls-8" d="M358.07,236.13c-.66-.06-1.42.12-2.05,0-12.2-11.71-24.47-24-36.94-35.38,17.94-1.89,26.79,16.59,36.94,28.81,2.58,3.11,1.83,6.31,2.05,6.58h0Z"/>
    <path class="cls-43" d="M358.07,236.13c5.88,7.2,13.55,12.48,19.49,20.22v1.01c-7.61-6.79-14.24-14.22-21.55-21.23.63.12,1.39-.06,2.05,0h0Z"/>
  </g>
  <g>
    <path class="cls-60" d="M295.48,158.28c.17,1.38-2.28,3.67,0,11.12,1.57,5.14,2.72,4.7,6.16,8.09-1.62-.26-3.08-.24-4.62-1.01-3.67,12.28-1.26,4.52,2.05,4.05,2.26-.33,1.42,1.98,1.54,2.02l-5.13,4.55c22.6,33.56,56.22,58.67,84.64,87.45,3.32.97,4.44-8.11,3.59-11.12.76.1,2-1.17,2.05-2.02-3.94,39.01,3.51,21.05-19.49,34.37,7.96-9.96,16.01-5.59,16.42-8.59-32.57-29.81-67.86-57.61-93.87-93.52-4.68,1.53-4.38,4.81-4.62,5.05-9.12,9.26-16.7,19.92-25.65,29.32-11.34,11.92-23.36,23.7-35.9,34.37-3.3,2.81-28.56,19.96-28.73,21.74-.1,1.02,4.02,4.51,5.13,5.56-3.03,1.06-7.54-7.05-7.18,0-.02-4.37.04-8.82,0-13.14,19.94-15.71,37.4-33.82,55.4-51.56.69-.68,1.36-1.34,2.05-2.02,9.39-9.33,22.85-19.67,30.78-30.33l5.13-5.56c-5.71-7.48-8.55,1.09-8.21-11.63,4.65-1.17,4.42-4.06,6.67-3.03,1.32.6.15,5.14,4.62,3.03,1.97,9.05,1.23-10.06,2.05-21.23.04-.51-.82-6.05,0-10.11l2.05-1.01c1.9,4.89,2.45,10,3.07,15.16v-.02h0Z"/>
    <path class="cls-34" d="M366.27,295.78c-9.6,5.56-18.34,13.99-26.67,21.23-18.49,16.06-36.27,34.81-51.81,53.58l-6.67-7.07c1.83,1.51,4.9,2.23,5.64,5.05,8.61.64.03-32.22-5.64-42.96-7.36-13.94-43.22-52.64-58.48-63.19,12.55-10.68,24.57-22.45,35.9-34.37,1.12.03,2.08-.32,3.07.51,1.93,1.58,16.13,25.38,28.73,40.44,13.31,15.9,29.18,30.08,43.6,44.99l34.37-27.8c-25.42-19.73-44.96-44.51-66.68-67.73-8.79-9.39-20.21-16.65-17.44-19.72.24-.24-.06-3.52,4.62-5.05,26.01,35.91,61.3,63.71,93.87,93.52-.41,3.01-8.45-1.36-16.42,8.59h.02Z"/>
    <path class="cls-44" d="M258.55,228.05c8.94-9.4,16.53-20.06,25.65-29.32-2.77,3.07,8.65,10.31,17.44,19.72,21.72,23.23,41.26,48.01,66.68,67.73l-34.37,27.8c-14.43-14.91-30.3-29.09-43.6-44.99-12.6-15.06-26.8-38.86-28.73-40.44-1-.82-1.96-.48-3.07-.51h0Z"/>
    <path class="cls-58" d="M222.64,262.42c15.25,10.54,51.12,49.25,58.48,63.19,5.67,10.75,14.25,43.6,5.64,42.96-.74-2.82-3.81-3.55-5.64-5.05-4.83-4-28.88-30.84-46.68-46.51-9.43-8.29-29.26-21.51-35.4-27.3-1.11-1.04-5.22-4.54-5.13-5.56.17-1.77,25.43-18.92,28.73-21.74h0Z"/>
    <path class="cls-38" d="M199.04,289.71c6.14,5.78,25.97,19,35.4,27.3,17.8,15.66,41.85,42.51,46.68,46.51l6.67,7.07c15.53-18.78,33.32-37.53,51.81-53.58-9.56,10.96-4.34,11.77-5.13,13.65-1.26,2.97-43.78,44.31-44.11,47.52-.36,3.43,14.83,11.22,8.21,13.65-33.18-34.7-68.05-68.2-106.7-97.05v-5.05c-.36-7.05,4.15,1.06,7.18,0h0Z"/>
    <path class="cls-34" d="M308.82,192.66c6.25,6.81,40.87,42.24,47.2,43.47,7.31,7.02,13.94,14.45,21.55,21.23,1.47,1.3,4.14,5.81,6.16,6.07.85,3.01-.27,12.09-3.59,11.12-28.42-28.78-62.04-53.89-84.64-87.45l5.13-4.55c2.31,3.59,5.33,6.98,8.21,10.11h0Z"/>
    <g>
      <path class="cls-52" d="M253.42,210.86c-2.78,4.1-9.5,12.01-4.1,12.14-.69.68-1.36,1.34-2.05,2.02l-33.35,30.33c-4.96-3.15-4.41-7.38-6.67-12.14,3.44-3.5,32.33-29.26,34.37-30.33,2.81-1.48,8.47-2.15,11.8-2.02h0Z"/>
      <path class="cls-52" d="M247.26,225.01c-18,17.74-35.46,35.85-55.4,51.56-.05-5.18-.95-10.8-1.02-16.18,4.74-1.19,8.85-9.51,16.41-17.19,2.26,4.75,1.7,8.98,6.67,12.14l33.35-30.33h0Z"/>
    </g>
    <path class="cls-34" d="M280.09,192.66c-7.93,10.66-21.39,21-30.78,30.33-5.4-.12,1.32-8.02,4.1-12.14,2.22-3.28,12.92-17.74,14.37-19.21,1.84-1.86,7.83-4.01,8.21-7.07,2.75,1.38,6.04.88,8.21,3.54-1.61,1.37-2.85,2.87-4.1,4.55h0Z"/>
    <path class="cls-48" d="M298.57,391.83c-3.31,8.1-9.76.74-19.49-3.03-3.97-1.53-8.45-3.31-12.31-5.05-.64-.29-2.54.29-3.07,0-4.62-2.46-45.19-61-72.84-73.8.03-5,1.03-10.4,1.02-15.16,38.65,28.85,73.52,62.35,106.7,97.05h0Z"/>
    <path class="cls-42" d="M383.71,301.85l-48.22,52.57c-4.68,4.99-4.41-4.14-11.28-10.11,7.39-7.61,48.23-47.98,55.91-46.51,1.5,1.08,2.41,2.7,3.59,4.05h0Z"/>
    <path class="cls-52" d="M335.49,354.41l-27.7,31.34c-4.57,1.35-6.65,6-14.37-7.58,9.48-12.06,20.09-22.87,30.78-33.87,6.88,5.97,6.6,15.11,11.28,10.11h0Z"/>
    <path class="cls-15" d="M319.08,200.75c12.46,11.38,24.74,23.67,36.94,35.38-6.32-1.23-40.94-36.66-47.2-43.47,4.55,4.66,9.78,7.65,10.26,8.09Z"/>
    <path class="cls-60" d="M383.71,263.43c-2.01-.26-4.69-4.75-6.16-6.07v-1.01c1.92,2.5,4.91,2.64,6.16,7.07Z"/>
  </g>
</svg>